<svg width="484" height="101" viewBox="0 0 484 101" fill="none" xmlns="http://www.w3.org/2000/svg">
<path d="M61.57 31.833C61.57 27.0297 60.7403 23.449 59.081 21.091C57.4217 18.6457 55.3257 16.9863 52.793 16.113C50.3477 15.2397 47.946 14.8467 45.588 14.934L37.073 15.065C35.239 15.065 33.667 15.327 32.357 15.851C31.047 16.2877 30.0427 17.3357 29.344 18.995C28.6453 20.567 28.296 23.056 28.296 26.462V44.802L36.156 44.54C44.7147 44.278 51.614 44.8457 56.854 46.243C62.1813 47.6403 66.2423 49.649 69.037 52.269C71.919 54.8017 73.8403 57.7273 74.801 61.046C75.849 64.3647 76.373 67.858 76.373 71.526C76.373 77.29 74.9757 82.1807 72.181 86.198C69.4737 90.128 65.7183 93.0973 60.915 95.106C56.1117 97.1147 50.6533 98.119 44.54 98.119H-2.95416e-06V89.473C2.00866 89.3857 3.668 89.1237 4.978 88.687C6.37533 88.2503 7.42333 87.246 8.122 85.674C8.908 84.102 9.301 81.5693 9.301 78.076V27.903C9.301 25.545 9.34466 23.2743 9.432 21.091C9.60666 18.9077 9.73766 17.2483 9.825 16.113C8.42766 16.2003 6.681 16.2877 4.585 16.375C2.489 16.375 0.960664 16.4187 -2.95416e-06 16.506V6.419H69.43L70.085 31.833H61.57ZM28.296 77.29C28.296 79.648 28.2523 81.875 28.165 83.971C28.0777 86.067 27.9467 87.6827 27.772 88.818C29.344 88.818 30.8287 88.818 32.226 88.818C33.6233 88.818 35.0207 88.818 36.418 88.818C37.8153 88.7307 39.169 88.687 40.479 88.687C45.8063 88.425 49.6927 86.6783 52.138 83.447C54.5833 80.2157 55.806 76.0673 55.806 71.002C55.806 66.4607 54.9763 62.9673 53.317 60.522C51.6577 58.0767 49.518 56.3737 46.898 55.413C44.3653 54.4523 41.7017 53.972 38.907 53.972C36.7237 53.972 34.846 53.972 33.274 53.972C31.702 53.8847 30.0427 53.9283 28.296 54.103V77.29ZM125.777 98.119C125.603 96.8963 125.472 95.892 125.384 95.106C125.384 94.2327 125.341 93.2283 125.253 92.093C122.284 95.0623 119.14 97.1583 115.821 98.381C112.503 99.6037 109.14 100.215 105.734 100.215C100.145 100.215 95.7784 98.5557 92.6344 95.237C89.4904 91.9183 87.9184 87.77 87.9184 82.792C87.9184 78.6 88.9664 75.0193 91.0624 72.05C93.2457 69.0807 96.0841 66.679 99.5774 64.845C103.158 62.9237 107.088 61.4827 111.367 60.522C115.734 59.474 120.101 58.8627 124.467 58.688V51.876C124.467 49.6053 124.162 47.553 123.55 45.719C123.026 43.885 122.066 42.444 120.668 41.396C119.358 40.348 117.481 39.8677 115.035 39.955C113.376 40.0423 111.76 40.3917 110.188 41.003C108.616 41.6143 107.263 42.4877 106.127 43.623C106.826 44.409 107.263 45.2823 107.437 46.243C107.612 47.1163 107.699 47.9023 107.699 48.601C107.699 50.3477 107.001 52.1817 105.603 54.103C104.206 55.937 101.979 56.8103 98.9224 56.723C96.3024 56.6357 94.2937 55.7187 92.8964 53.972C91.4991 52.2253 90.8004 50.173 90.8004 47.815C90.8004 44.3217 92.0231 41.3087 94.4684 38.776C97.0011 36.156 100.363 34.1473 104.555 32.75C108.747 31.2653 113.376 30.523 118.441 30.523C126.127 30.523 132.065 32.5317 136.257 36.549C140.537 40.479 142.676 46.8107 142.676 55.544C142.676 58.5133 142.676 61.046 142.676 63.142C142.676 65.238 142.633 67.334 142.545 69.43C142.545 71.526 142.545 74.0587 142.545 77.028C142.545 78.2507 142.502 79.9973 142.414 82.268C142.327 84.4513 142.196 86.5473 142.021 88.556C143.506 88.3813 145.078 88.294 146.737 88.294C148.397 88.2067 149.663 88.163 150.536 88.163V98.119H125.777ZM124.336 67.989C121.891 68.251 119.577 68.6877 117.393 69.299C115.21 69.9103 113.289 70.74 111.629 71.788C110.057 72.836 108.791 74.1023 107.83 75.587C106.957 77.0717 106.52 78.731 106.52 80.565C106.608 83.0103 107.394 84.757 108.878 85.805C110.363 86.853 112.066 87.377 113.987 87.377C115.996 87.377 117.874 86.9403 119.62 86.067C121.367 85.1937 122.939 84.0583 124.336 82.661C124.336 81.7877 124.336 80.958 124.336 80.172C124.336 79.2987 124.336 78.4253 124.336 77.552C124.336 75.98 124.336 74.408 124.336 72.836C124.336 71.1767 124.336 69.561 124.336 67.989ZM196.048 41.134C193.69 41.134 191.943 41.6143 190.808 42.575C189.76 43.5357 189.061 44.8893 188.712 46.636C188.45 48.3827 188.319 50.435 188.319 52.793V77.028C188.319 78.2507 188.275 79.9973 188.188 82.268C188.1 84.4513 187.969 86.5473 187.795 88.556C189.192 88.3813 190.72 88.294 192.38 88.294C194.126 88.2067 195.436 88.163 196.31 88.163V98.119H161.988V89.604C164.433 89.604 166.18 89.1237 167.228 88.163C168.276 87.2023 168.931 85.8487 169.193 84.102C169.542 82.268 169.717 80.2157 169.717 77.945V53.71C169.717 52.4873 169.76 50.7407 169.848 48.47C169.935 46.1993 170.066 44.1033 170.241 42.182C168.843 42.2693 167.315 42.3567 165.656 42.444C163.996 42.5313 162.686 42.575 161.726 42.575V32.619H196.048V41.134ZM215.436 43.623L221.724 50.173L184.127 86.329L177.708 79.648L215.436 43.623ZM238.492 41.134C236.134 41.134 234.387 41.6143 233.252 42.575C232.204 43.5357 231.505 44.8893 231.156 46.636C230.894 48.3827 230.763 50.435 230.763 52.793V77.028C230.763 78.2507 230.719 79.9973 230.632 82.268C230.544 84.4513 230.413 86.5473 230.239 88.556C231.636 88.3813 233.164 88.294 234.824 88.294C236.57 88.2067 237.88 88.163 238.754 88.163V98.119H204.432V89.604C206.877 89.604 208.624 89.1237 209.672 88.163C210.72 87.2023 211.375 85.8487 211.637 84.102C211.986 82.268 212.161 80.2157 212.161 77.945V53.71C212.161 52.4873 212.204 50.7407 212.292 48.47C212.379 46.1993 212.51 44.1033 212.685 42.182C211.287 42.2693 209.759 42.3567 208.1 42.444C206.44 42.5313 205.13 42.575 204.17 42.575V32.619H238.492V41.134ZM199.716 22.139C193.602 22.139 188.581 20.9163 184.651 18.471C180.808 16.0257 178.887 12.576 178.887 8.122C178.887 5.764 179.498 3.84267 180.721 2.358C181.943 0.786002 183.777 0.0436677 186.223 0.131C188.319 0.131 189.891 0.654998 190.939 1.703C192.074 2.66367 192.86 3.75533 193.297 4.978C193.733 6.20067 193.952 7.16133 193.952 7.86C193.864 8.646 193.69 9.47567 193.428 10.349C193.253 11.135 192.904 12.0083 192.38 12.969C193.602 14.017 194.738 14.7593 195.786 15.196C196.921 15.5453 198.231 15.72 199.716 15.72C201.2 15.72 202.51 15.5453 203.646 15.196C204.781 14.7593 205.916 14.017 207.052 12.969C206.528 12.0083 206.135 11.135 205.873 10.349C205.698 9.47567 205.567 8.646 205.48 7.86C205.48 7.16133 205.654 6.20067 206.004 4.978C206.44 3.75533 207.226 2.66367 208.362 1.703C209.497 0.654998 211.069 0.131 213.078 0.131C215.61 0.0436677 217.488 0.786002 218.711 2.358C219.933 3.84267 220.545 5.764 220.545 8.122C220.545 12.576 218.58 16.0257 214.65 18.471C210.807 20.9163 205.829 22.139 199.716 22.139ZM250.046 98.119V89.604C252.492 89.604 254.238 89.1237 255.286 88.163C256.422 87.2023 257.12 85.8487 257.382 84.102C257.732 82.268 257.906 80.2157 257.906 77.945V53.71C257.906 52.4873 257.95 50.7407 258.037 48.47C258.125 46.1993 258.256 44.1033 258.43 42.182C257.033 42.2693 255.505 42.3567 253.845 42.444C252.186 42.5313 250.876 42.575 249.915 42.575V32.619H284.237V41.134C281.792 41.134 280.002 41.6143 278.866 42.575C277.818 43.5357 277.163 44.8893 276.901 46.636C276.639 48.3827 276.508 50.435 276.508 52.793V58.95H282.796L292.228 48.077C293.364 46.8543 294.281 45.8063 294.979 44.933C295.765 44.0597 296.551 43.2737 297.337 42.575H290.394V32.619H319.869V41.003C316.813 41.3523 314.105 42.0947 311.747 43.23C309.389 44.278 307.337 45.5443 305.59 47.029C303.931 48.5137 302.49 49.9547 301.267 51.352L292.883 60.653C294.193 61.3517 295.46 62.3123 296.682 63.535C297.992 64.6703 299.564 66.4607 301.398 68.906L310.175 80.434C310.699 81.0453 311.354 81.875 312.14 82.923C313.014 83.971 313.974 85.019 315.022 86.067C316.07 87.0277 317.206 87.8573 318.428 88.556C319.651 89.2547 320.917 89.604 322.227 89.604V98.119H307.162C304.368 98.119 301.922 97.1583 299.826 95.237C297.73 93.2283 295.329 90.39 292.621 86.722C291.049 84.626 289.39 82.399 287.643 80.041C285.984 77.5957 284.412 75.325 282.927 73.229C281.53 71.0457 280.395 69.3427 279.521 68.12L276.508 68.251V77.028C276.508 78.2507 276.465 79.9973 276.377 82.268C276.29 84.4513 276.159 86.5473 275.984 88.556C277.382 88.3813 278.91 88.294 280.569 88.294C282.229 88.2067 283.539 88.163 284.499 88.163V98.119H250.046ZM369.76 98.119C369.585 96.8963 369.454 95.892 369.367 95.106C369.367 94.2327 369.323 93.2283 369.236 92.093C366.266 95.0623 363.122 97.1583 359.804 98.381C356.485 99.6037 353.123 100.215 349.717 100.215C344.127 100.215 339.761 98.5557 336.617 95.237C333.473 91.9183 331.901 87.77 331.901 82.792C331.901 78.6 332.949 75.0193 335.045 72.05C337.228 69.0807 340.066 66.679 343.56 64.845C347.14 62.9237 351.07 61.4827 355.35 60.522C359.716 59.474 364.083 58.8627 368.45 58.688V51.876C368.45 49.6053 368.144 47.553 367.533 45.719C367.009 43.885 366.048 42.444 364.651 41.396C363.341 40.348 361.463 39.8677 359.018 39.955C357.358 40.0423 355.743 40.3917 354.171 41.003C352.599 41.6143 351.245 42.4877 350.11 43.623C350.808 44.409 351.245 45.2823 351.42 46.243C351.594 47.1163 351.682 47.9023 351.682 48.601C351.682 50.3477 350.983 52.1817 349.586 54.103C348.188 55.937 345.961 56.8103 342.905 56.723C340.285 56.6357 338.276 55.7187 336.879 53.972C335.481 52.2253 334.783 50.173 334.783 47.815C334.783 44.3217 336.005 41.3087 338.451 38.776C340.983 36.156 344.346 34.1473 348.538 32.75C352.73 31.2653 357.358 30.523 362.424 30.523C370.109 30.523 376.048 32.5317 380.24 36.549C384.519 40.479 386.659 46.8107 386.659 55.544C386.659 58.5133 386.659 61.046 386.659 63.142C386.659 65.238 386.615 67.334 386.528 69.43C386.528 71.526 386.528 74.0587 386.528 77.028C386.528 78.2507 386.484 79.9973 386.397 82.268C386.309 84.4513 386.178 86.5473 386.004 88.556C387.488 88.3813 389.06 88.294 390.72 88.294C392.379 88.2067 393.645 88.163 394.519 88.163V98.119H369.76ZM368.319 67.989C365.873 68.251 363.559 68.6877 361.376 69.299C359.192 69.9103 357.271 70.74 355.612 71.788C354.04 72.836 352.773 74.1023 351.813 75.587C350.939 77.0717 350.503 78.731 350.503 80.565C350.59 83.0103 351.376 84.757 352.861 85.805C354.345 86.853 356.048 87.377 357.97 87.377C359.978 87.377 361.856 86.9403 363.603 86.067C365.349 85.1937 366.921 84.0583 368.319 82.661C368.319 81.7877 368.319 80.958 368.319 80.172C368.319 79.2987 368.319 78.4253 368.319 77.552C368.319 75.98 368.319 74.408 368.319 72.836C368.319 71.1767 368.319 69.561 368.319 67.989ZM415.14 99.953C411.123 99.953 407.804 98.8613 405.184 96.678C402.564 94.4947 401.254 91.6563 401.254 88.163C401.254 85.281 402.084 83.0977 403.743 81.613C405.402 80.041 407.586 79.255 410.293 79.255C413.088 79.255 415.053 79.9973 416.188 81.482C417.411 82.9667 418.022 84.5823 418.022 86.329C418.022 87.4643 417.891 88.3377 417.629 88.949C417.367 89.473 417.061 89.9533 416.712 90.39C416.974 90.652 417.411 90.783 418.022 90.783C420.38 90.783 422.432 88.818 424.179 84.888C425.926 80.958 427.367 75.325 428.502 67.989C429.637 60.653 430.511 51.8323 431.122 41.527L418.677 42.575V32.619H482.998V41.134C480.553 41.134 478.762 41.6143 477.627 42.575C476.579 43.5357 475.88 44.8893 475.531 46.636C475.269 48.3827 475.138 50.435 475.138 52.793V77.028C475.138 78.2507 475.094 79.9973 475.007 82.268C474.92 84.4513 474.789 86.5473 474.614 88.556L483.129 88.163V98.119H448.676V89.604C451.121 89.604 452.868 89.1237 453.916 88.163C455.051 87.2023 455.75 85.8487 456.012 84.102C456.361 82.268 456.536 80.2157 456.536 77.945V53.71C456.536 52.4873 456.58 50.8717 456.667 48.863C456.754 46.767 456.885 44.802 457.06 42.968H447.235C445.139 42.968 443.654 43.3173 442.781 44.016C441.908 44.7147 441.384 46.1557 441.209 48.339C440.685 57.0723 439.724 64.6703 438.327 71.133C437.017 77.5957 435.27 82.9667 433.087 87.246C430.991 91.5253 428.415 94.713 425.358 96.809C422.389 98.905 418.983 99.953 415.14 99.953Z" fill="#2F70D9"/>
</svg>
