<svg width="357" height="36" viewBox="0 0 357 36" fill="none" xmlns="http://www.w3.org/2000/svg">
<path d="M3.72529e-08 35.1499V31.8499C0.766667 31.8166 1.4 31.7166 1.9 31.5499C2.43333 31.3832 2.83333 30.9999 3.1 30.3999C3.4 29.7999 3.55 28.8332 3.55 27.4999V8.3499C3.55 7.4499 3.56667 6.58323 3.6 5.7499C3.66667 4.91657 3.71667 4.28323 3.75 3.8499C3.21667 3.88323 2.55 3.91657 1.75 3.9499C0.95 3.9499 0.366667 3.96657 3.72529e-08 3.9999V0.1499C2.3 0.116567 4.6 0.0999006 6.9 0.0999006C9.23333 0.0999006 11.55 0.0832342 13.85 0.0499012C17.85 0.0165683 21.0167 0.766569 23.35 2.2999C25.7167 3.7999 26.8167 6.08323 26.65 9.1499C26.5833 10.1166 26.2833 11.0666 25.75 11.9999C25.2167 12.8999 24.4167 13.7166 23.35 14.4499C22.3167 15.1832 21.0167 15.7666 19.45 16.1999V16.2499C22.7833 16.7832 25.2333 17.8999 26.8 19.5999C28.3667 21.2666 29.15 23.1332 29.15 25.1999C29.15 27.3666 28.6167 29.1999 27.55 30.6999C26.5167 32.1666 25.0833 33.2832 23.25 34.0499C21.4167 34.7832 19.3333 35.1499 17 35.1499H3.72529e-08ZM10.6 31.5999C11.2 31.5999 11.7667 31.5999 12.3 31.5999C12.8333 31.5999 13.3667 31.5999 13.9 31.5999C14.4333 31.5666 14.95 31.5499 15.45 31.5499C17.4833 31.4499 18.9667 30.7999 19.9 29.5999C20.8333 28.3999 21.3 26.8832 21.3 25.0499C21.3 23.5166 20.9833 22.3166 20.35 21.4499C19.7167 20.5499 18.9 19.9166 17.9 19.5499C16.9333 19.1832 15.9167 18.9999 14.85 18.9999C14.0167 18.9999 13.3 18.9999 12.7 18.9999C12.1 18.9999 11.4667 19.0166 10.8 19.0499V27.1999C10.8 28.0999 10.7833 28.9499 10.75 29.7499C10.7167 30.5499 10.6667 31.1666 10.6 31.5999ZM10.8 15.4999L13.4 15.4499C14.8 15.4166 15.9 15.0999 16.7 14.4999C17.5333 13.8999 18.1167 13.0999 18.45 12.0999C18.8167 11.0666 19 9.9499 19 8.7499C19 7.41657 18.7333 6.38323 18.2 5.6499C17.6667 4.88323 17 4.33323 16.2 3.9999C15.4 3.66657 14.5667 3.51657 13.7 3.5499C13.1667 3.5499 12.6833 3.63323 12.25 3.7999C11.8167 3.96657 11.4667 4.3499 11.2 4.9499C10.9333 5.51657 10.8 6.4499 10.8 7.7499V15.4999ZM48.0066 35.1499C47.94 34.6832 47.89 34.2999 47.8566 33.9999C47.8566 33.6666 47.84 33.2832 47.8066 32.8499C46.6733 33.9832 45.4733 34.7832 44.2066 35.2499C42.94 35.7166 41.6566 35.9499 40.3566 35.9499C38.2233 35.9499 36.5566 35.3166 35.3566 34.0499C34.1566 32.7832 33.5566 31.1999 33.5566 29.2999C33.5566 27.6999 33.9566 26.3332 34.7566 25.1999C35.59 24.0666 36.6733 23.1499 38.0066 22.4499C39.3733 21.7166 40.8733 21.1666 42.5066 20.7999C44.1733 20.3999 45.84 20.1666 47.5066 20.0999V17.4999C47.5066 16.6332 47.39 15.8499 47.1566 15.1499C46.9566 14.4499 46.59 13.8999 46.0566 13.4999C45.5566 13.0999 44.84 12.9166 43.9066 12.9499C43.2733 12.9832 42.6566 13.1166 42.0566 13.3499C41.4566 13.5832 40.94 13.9166 40.5066 14.3499C40.7733 14.6499 40.94 14.9832 41.0066 15.3499C41.0733 15.6832 41.1066 15.9832 41.1066 16.2499C41.1066 16.9166 40.84 17.6166 40.3066 18.3499C39.7733 19.0499 38.9233 19.3832 37.7566 19.3499C36.7566 19.3166 35.99 18.9666 35.4566 18.2999C34.9233 17.6332 34.6566 16.8499 34.6566 15.9499C34.6566 14.6166 35.1233 13.4666 36.0566 12.4999C37.0233 11.4999 38.3066 10.7332 39.9066 10.1999C41.5066 9.63323 43.2733 9.3499 45.2066 9.3499C48.14 9.3499 50.4066 10.1166 52.0066 11.6499C53.64 13.1499 54.4566 15.5666 54.4566 18.8999C54.4566 20.0332 54.4566 20.9999 54.4566 21.7999C54.4566 22.5999 54.44 23.3999 54.4066 24.1999C54.4066 24.9999 54.4066 25.9666 54.4066 27.0999C54.4066 27.5666 54.39 28.2332 54.3566 29.0999C54.3233 29.9332 54.2733 30.7332 54.2066 31.4999C54.7733 31.4332 55.3733 31.3999 56.0066 31.3999C56.64 31.3666 57.1233 31.3499 57.4566 31.3499V35.1499H48.0066ZM47.4566 23.6499C46.5233 23.7499 45.64 23.9166 44.8066 24.1499C43.9733 24.3832 43.24 24.6999 42.6066 25.0999C42.0066 25.4999 41.5233 25.9832 41.1566 26.5499C40.8233 27.1166 40.6566 27.7499 40.6566 28.4499C40.69 29.3832 40.99 30.0499 41.5566 30.4499C42.1233 30.8499 42.7733 31.0499 43.5066 31.0499C44.2733 31.0499 44.99 30.8832 45.6566 30.5499C46.3233 30.2166 46.9233 29.7832 47.4566 29.2499C47.4566 28.9166 47.4566 28.5999 47.4566 28.2999C47.4566 27.9666 47.4566 27.6332 47.4566 27.2999C47.4566 26.6999 47.4566 26.0999 47.4566 25.4999C47.4566 24.8666 47.4566 24.2499 47.4566 23.6499ZM61.9273 35.1499V31.8999C62.8607 31.8999 63.5273 31.7166 63.9273 31.3499C64.3607 30.9832 64.6273 30.4666 64.7273 29.7999C64.8607 29.0999 64.9273 28.3166 64.9273 27.4499V18.1999C64.9273 17.7332 64.944 17.0666 64.9773 16.1999C65.0107 15.3332 65.044 14.5332 65.0773 13.7999L61.8773 13.9499V10.1499H74.5273V13.3999C73.694 13.3999 73.0773 13.5832 72.6773 13.9499C72.2773 14.3166 72.0273 14.8332 71.9273 15.4999C71.8273 16.1666 71.7773 16.9499 71.7773 17.8499V27.0999C71.7773 27.5666 71.7607 28.1999 71.7273 28.9999C71.694 29.7666 71.644 30.4999 71.5773 31.1999H75.9773C76.9107 31.1999 77.5773 31.0499 77.9773 30.7499C78.4107 30.4166 78.6773 29.9666 78.7773 29.3999C78.9107 28.8332 78.9773 28.1832 78.9773 27.4499V18.1999C78.9773 17.7332 78.994 17.0666 79.0273 16.1999C79.0607 15.3332 79.1107 14.5332 79.1773 13.7999L76.6273 13.9499V10.1499H88.5273V13.3999C87.694 13.3999 87.0773 13.5832 86.6773 13.9499C86.3107 14.3166 86.0773 14.8332 85.9773 15.4999C85.8773 16.1666 85.8273 16.9499 85.8273 17.8499V27.0999C85.8273 27.5666 85.8107 28.1832 85.7773 28.9499C85.744 29.7166 85.694 30.4666 85.6273 31.1999H90.0273C90.9607 31.1999 91.6273 31.0499 92.0273 30.7499C92.4607 30.4166 92.7273 29.9666 92.8273 29.3999C92.9607 28.8332 93.0273 28.1832 93.0273 27.4499V18.1999C93.0273 17.7332 93.044 17.0666 93.0773 16.1999C93.1107 15.3332 93.1607 14.5332 93.2273 13.7999L90.7273 13.9499V10.1499H102.827V13.3999C101.927 13.3999 101.261 13.5832 100.827 13.9499C100.427 14.3166 100.161 14.8332 100.027 15.4999C99.9273 16.1666 99.8773 16.9499 99.8773 17.8499V27.0999C99.8773 27.5666 99.8607 28.2332 99.8273 29.0999C99.794 29.9332 99.744 30.7332 99.6773 31.4999L102.927 31.3499V35.1499H61.9273ZM121.542 13.3999C120.642 13.3999 119.976 13.5832 119.542 13.9499C119.142 14.3166 118.876 14.8332 118.742 15.4999C118.642 16.1666 118.592 16.9499 118.592 17.8499V27.0999C118.592 27.5666 118.576 28.2332 118.542 29.0999C118.509 29.9332 118.459 30.7332 118.392 31.4999C118.926 31.4332 119.509 31.3999 120.142 31.3999C120.809 31.3666 121.309 31.3499 121.642 31.3499V35.1499H108.542V31.8999C109.476 31.8999 110.142 31.7166 110.542 31.3499C110.942 30.9832 111.192 30.4666 111.292 29.7999C111.426 29.0999 111.492 28.3166 111.492 27.4499V18.1999C111.492 17.7332 111.509 17.0666 111.542 16.1999C111.576 15.3332 111.626 14.5332 111.692 13.7999C111.159 13.8332 110.576 13.8666 109.942 13.8999C109.309 13.9332 108.809 13.9499 108.442 13.9499V10.1499H121.542V13.3999ZM128.942 14.3499L131.342 16.8499L116.992 30.6499L114.542 28.0999L128.942 14.3499ZM137.742 13.3999C136.842 13.3999 136.176 13.5832 135.742 13.9499C135.342 14.3166 135.076 14.8332 134.942 15.4999C134.842 16.1666 134.792 16.9499 134.792 17.8499V27.0999C134.792 27.5666 134.776 28.2332 134.742 29.0999C134.709 29.9332 134.659 30.7332 134.592 31.4999C135.126 31.4332 135.709 31.3999 136.342 31.3999C137.009 31.3666 137.509 31.3499 137.842 31.3499V35.1499H124.742V31.8999C125.676 31.8999 126.342 31.7166 126.742 31.3499C127.142 30.9832 127.392 30.4666 127.492 29.7999C127.626 29.0999 127.692 28.3166 127.692 27.4499V18.1999C127.692 17.7332 127.709 17.0666 127.742 16.1999C127.776 15.3332 127.826 14.5332 127.892 13.7999C127.359 13.8332 126.776 13.8666 126.142 13.8999C125.509 13.9332 125.009 13.9499 124.642 13.9499V10.1499H137.742V13.3999ZM169.837 35.9499C167.437 35.9499 165.27 35.4332 163.337 34.3999C161.404 33.3666 159.87 31.8999 158.737 29.9999C157.637 28.0666 157.087 25.7999 157.087 23.1999C157.087 20.4332 157.654 18.0166 158.787 15.9499C159.954 13.8499 161.487 12.2332 163.387 11.0999C165.32 9.93323 167.42 9.3499 169.687 9.3499C172.087 9.3499 174.237 9.86657 176.137 10.8999C178.037 11.9332 179.537 13.4166 180.637 15.3499C181.737 17.2499 182.287 19.5332 182.287 22.1999C182.287 24.9999 181.754 27.4332 180.687 29.4999C179.62 31.5666 178.154 33.1666 176.287 34.2999C174.42 35.3999 172.27 35.9499 169.837 35.9499ZM170.037 32.3999C171.37 32.3666 172.37 31.8999 173.037 30.9999C173.737 30.0999 174.22 28.9666 174.487 27.5999C174.754 26.2332 174.887 24.8499 174.887 23.4499C174.887 22.2166 174.787 20.9666 174.587 19.6999C174.42 18.4332 174.137 17.2832 173.737 16.2499C173.337 15.2166 172.787 14.3832 172.087 13.7499C171.42 13.1166 170.587 12.8166 169.587 12.8499C168.287 12.8832 167.254 13.3499 166.487 14.2499C165.754 15.1499 165.22 16.2832 164.887 17.6499C164.587 18.9832 164.437 20.3832 164.437 21.8499C164.437 23.5499 164.62 25.2166 164.987 26.8499C165.354 28.4832 165.937 29.8332 166.737 30.8999C167.57 31.9332 168.67 32.4332 170.037 32.3999ZM191.907 35.1499V31.8999C192.841 31.8999 193.507 31.7166 193.907 31.3499C194.341 30.9832 194.607 30.4666 194.707 29.7999C194.841 29.0999 194.907 28.3166 194.907 27.4499V18.1999C194.907 17.7332 194.924 17.1166 194.957 16.3499C194.991 15.5499 195.024 14.7832 195.057 14.0499H193.807C192.307 14.0499 191.191 14.4332 190.457 15.1999C189.724 15.9332 189.357 17.2832 189.357 19.2499H186.107L186.307 10.1499H210.557L210.757 19.2499H207.507C207.507 17.2832 207.141 15.9332 206.407 15.1999C205.674 14.4332 204.557 14.0499 203.057 14.0499H201.957V27.0999C201.957 27.5666 201.941 28.2332 201.907 29.0999C201.874 29.9332 201.824 30.7332 201.757 31.4999L205.007 31.3499V35.1499H191.907ZM225.979 35.9999C223.679 35.9666 221.713 35.6166 220.079 34.9499C218.479 34.2832 217.246 33.4332 216.379 32.3999C215.546 31.3666 215.129 30.2832 215.129 29.1499C215.129 28.1166 215.413 27.2332 215.979 26.4999C216.579 25.7332 217.446 25.3499 218.579 25.3499C219.679 25.3499 220.463 25.7166 220.929 26.4499C221.429 27.1832 221.679 27.8999 221.679 28.5999C221.679 28.8666 221.596 29.2166 221.429 29.6499C221.296 30.0499 221.079 30.4166 220.779 30.7499C221.146 31.3832 221.813 31.8832 222.779 32.2499C223.746 32.5832 224.729 32.7499 225.729 32.7499C227.296 32.7499 228.529 32.3332 229.429 31.4999C230.329 30.6332 230.779 29.4332 230.779 27.8999C230.779 26.1999 230.346 25.0499 229.479 24.4499C228.613 23.8166 227.646 23.4999 226.579 23.4999H222.729V20.3999H225.629C226.729 20.3999 227.563 20.1999 228.129 19.7999C228.729 19.3999 229.129 18.8999 229.329 18.2999C229.563 17.6666 229.679 17.0332 229.679 16.3999C229.679 14.9332 229.246 13.9166 228.379 13.3499C227.513 12.7832 226.596 12.4999 225.629 12.4999C224.996 12.4999 224.279 12.6666 223.479 12.9999C222.679 13.3332 221.963 13.9332 221.329 14.7999C220.696 15.6332 220.279 16.8499 220.079 18.4499H216.879V9.5999H220.679V11.0499C221.646 10.4499 222.663 10.0166 223.729 9.7499C224.829 9.48323 225.896 9.33323 226.929 9.2999C229.763 9.23323 231.996 9.7499 233.629 10.8499C235.263 11.9166 236.079 13.4999 236.079 15.5999C236.079 16.9332 235.713 18.0999 234.979 19.0999C234.246 20.0666 233.096 20.8332 231.529 21.3999C233.596 21.8999 235.146 22.7332 236.179 23.8999C237.213 25.0666 237.729 26.5166 237.729 28.2499C237.729 29.9166 237.213 31.3332 236.179 32.4999C235.146 33.6666 233.746 34.5499 231.979 35.1499C230.213 35.7166 228.213 35.9999 225.979 35.9999ZM242.998 35.1499V31.8999C243.898 31.8666 244.614 31.7166 245.148 31.4499C245.714 31.1499 245.998 30.2832 245.998 28.8499V18.1999C245.998 17.7332 246.014 17.0666 246.048 16.1999C246.081 15.3332 246.114 14.5332 246.148 13.7999C245.614 13.8332 245.031 13.8666 244.398 13.8999C243.798 13.9332 243.314 13.9499 242.948 13.9499V10.1499H256.098V13.3999C255.164 13.3999 254.481 13.5832 254.048 13.9499C253.648 14.3166 253.381 14.8332 253.248 15.4999C253.148 16.1666 253.098 16.9499 253.098 17.8499L253.148 20.0499L255.448 19.9499C258.448 19.8499 260.764 20.1166 262.398 20.7499C264.031 21.3832 265.164 22.2832 265.798 23.4499C266.431 24.5832 266.748 25.8499 266.748 27.2499C266.748 29.0499 266.348 30.5332 265.548 31.6999C264.748 32.8666 263.681 33.7332 262.348 34.2999C261.014 34.8666 259.548 35.1499 257.948 35.1499H242.998ZM252.798 31.7499C253.498 31.7499 254.131 31.7499 254.698 31.7499C255.298 31.7499 255.898 31.7332 256.498 31.6999C257.464 31.6332 258.264 31.2499 258.898 30.5499C259.564 29.8166 259.898 28.7999 259.898 27.4999C259.964 25.9999 259.614 24.8832 258.848 24.1499C258.081 23.4166 257.164 23.0499 256.098 23.0499C255.431 23.0832 254.881 23.0999 254.448 23.0999C254.048 23.0666 253.598 23.0666 253.098 23.0999V28.7499C253.098 29.3499 253.064 29.8999 252.998 30.3999C252.931 30.8999 252.864 31.3499 252.798 31.7499ZM268.548 35.1499V31.8999C269.481 31.8999 270.148 31.7166 270.548 31.3499C270.981 30.9832 271.248 30.4666 271.348 29.7999C271.481 29.0999 271.548 28.3166 271.548 27.4499V18.1999C271.548 17.7332 271.564 17.0666 271.598 16.1999C271.631 15.3332 271.681 14.5332 271.748 13.7999C271.214 13.8332 270.631 13.8666 269.998 13.8999C269.364 13.9332 268.864 13.9499 268.498 13.9499V10.1499H281.598V13.3999C280.698 13.3999 280.031 13.5832 279.598 13.9499C279.198 14.3166 278.931 14.8332 278.798 15.4999C278.698 16.1666 278.648 16.9499 278.648 17.8499V27.0999C278.648 27.5666 278.631 28.2332 278.598 29.0999C278.564 29.9332 278.514 30.7332 278.448 31.4999C278.981 31.4332 279.564 31.3999 280.198 31.3999C280.864 31.3666 281.364 31.3499 281.698 31.3499V35.1499H268.548ZM287.368 35.1499V31.8999C288.268 31.8666 288.984 31.7166 289.518 31.4499C290.084 31.1499 290.368 30.2832 290.368 28.8499V16.4999C290.368 15.8666 290.368 15.2666 290.368 14.6999C290.401 14.0999 290.434 13.6332 290.468 13.2999C290.068 13.3332 289.518 13.3666 288.818 13.3999C288.118 13.3999 287.634 13.3999 287.368 13.3999L287.418 10.1499C289.084 10.1499 290.751 10.1499 292.418 10.1499C294.084 10.1166 295.751 10.0999 297.418 10.0999C299.084 10.0999 300.751 10.0999 302.418 10.0999C305.284 10.0999 307.418 10.5999 308.818 11.5999C310.251 12.5666 310.968 14.0499 310.968 16.0499C310.968 17.3832 310.618 18.5499 309.918 19.5499C309.251 20.5499 308.101 21.3332 306.468 21.8999C308.634 22.3332 310.201 23.0999 311.168 24.1999C312.134 25.2999 312.618 26.5999 312.618 28.0999C312.618 29.6332 312.201 30.9332 311.368 31.9999C310.568 33.0332 309.451 33.8166 308.018 34.3499C306.584 34.8832 304.951 35.1499 303.118 35.1499H287.368ZM297.118 31.7499C297.618 31.7499 298.168 31.7499 298.768 31.7499C299.368 31.7499 299.934 31.7499 300.468 31.7499C301.034 31.7166 301.484 31.6999 301.818 31.6999C303.184 31.6332 304.168 31.2666 304.768 30.5999C305.401 29.8999 305.718 29.0166 305.718 27.9499C305.718 26.4499 305.268 25.4332 304.368 24.8999C303.468 24.3332 302.484 24.0499 301.418 24.0499C300.684 24.0499 299.968 24.0499 299.268 24.0499C298.568 24.0499 297.951 24.0666 297.418 24.0999V28.7499C297.418 29.3499 297.384 29.8999 297.318 30.3999C297.251 30.8999 297.184 31.3499 297.118 31.7499ZM297.418 20.9999L299.768 20.9499C301.101 20.8832 302.101 20.6666 302.768 20.2999C303.434 19.9332 303.884 19.4332 304.118 18.7999C304.351 18.1666 304.468 17.4332 304.468 16.5999C304.468 15.6999 304.284 15.0166 303.918 14.5499C303.584 14.0499 303.068 13.6999 302.368 13.4999C301.668 13.2999 300.784 13.2166 299.718 13.2499C299.084 13.2499 298.534 13.3832 298.068 13.6499C297.634 13.8832 297.418 14.5666 297.418 15.6999V20.9999ZM317.873 35.1499V31.8999C318.773 31.8666 319.489 31.7166 320.023 31.4499C320.589 31.1499 320.873 30.2832 320.873 28.8499V18.1999C320.873 17.7332 320.889 17.0666 320.923 16.1999C320.956 15.3332 320.989 14.5332 321.023 13.7999C320.489 13.8332 319.906 13.8666 319.273 13.8999C318.673 13.9332 318.189 13.9499 317.823 13.9499V10.1499H330.973V13.3999C330.039 13.3999 329.356 13.5832 328.923 13.9499C328.523 14.3166 328.256 14.8332 328.123 15.4999C328.023 16.1666 327.973 16.9499 327.973 17.8499L328.023 20.0499L330.323 19.9499C333.323 19.8499 335.639 20.1166 337.273 20.7499C338.906 21.3832 340.039 22.2832 340.673 23.4499C341.306 24.5832 341.623 25.8499 341.623 27.2499C341.623 29.0499 341.223 30.5332 340.423 31.6999C339.623 32.8666 338.556 33.7332 337.223 34.2999C335.889 34.8666 334.423 35.1499 332.823 35.1499H317.873ZM327.673 31.7499C328.373 31.7499 329.006 31.7499 329.573 31.7499C330.173 31.7499 330.773 31.7332 331.373 31.6999C332.339 31.6332 333.139 31.2499 333.773 30.5499C334.439 29.8166 334.773 28.7999 334.773 27.4999C334.839 25.9999 334.489 24.8832 333.723 24.1499C332.956 23.4166 332.039 23.0499 330.973 23.0499C330.306 23.0832 329.756 23.0999 329.323 23.0999C328.923 23.0666 328.473 23.0666 327.973 23.0999V28.7499C327.973 29.3499 327.939 29.8999 327.873 30.3999C327.806 30.8999 327.739 31.3499 327.673 31.7499ZM343.423 35.1499V31.8999C344.356 31.8999 345.023 31.7166 345.423 31.3499C345.856 30.9832 346.123 30.4666 346.223 29.7999C346.356 29.0999 346.423 28.3166 346.423 27.4499V18.1999C346.423 17.7332 346.439 17.0666 346.473 16.1999C346.506 15.3332 346.556 14.5332 346.623 13.7999C346.089 13.8332 345.506 13.8666 344.873 13.8999C344.239 13.9332 343.739 13.9499 343.373 13.9499V10.1499H356.473V13.3999C355.573 13.3999 354.906 13.5832 354.473 13.9499C354.073 14.3166 353.806 14.8332 353.673 15.4999C353.573 16.1666 353.523 16.9499 353.523 17.8499V27.0999C353.523 27.5666 353.506 28.2332 353.473 29.0999C353.439 29.9332 353.389 30.7332 353.323 31.4999C353.856 31.4332 354.439 31.3999 355.073 31.3999C355.739 31.3666 356.239 31.3499 356.573 31.3499V35.1499H343.423Z" fill="#2F70D9"/>
</svg>
