<svg width="360" height="66" viewBox="0 0 360 66" fill="none" xmlns="http://www.w3.org/2000/svg">
<path d="M227 9.71541L235.261 3.33439C236.739 2.1925 238.81 2.22573 240.251 3.41443L247.364 9.28202C248.842 10.5014 250.977 10.5014 252.455 9.28202L259.485 3.48214C260.963 2.2628 263.098 2.2628 264.576 3.48214L271.606 9.28202C273.084 10.5014 275.219 10.5014 276.697 9.28202L283.727 3.48214C285.205 2.2628 287.34 2.2628 288.818 3.48214L295.848 9.28202C297.326 10.5014 299.461 10.5014 300.939 9.28202L307.97 3.48214C309.448 2.2628 311.583 2.2628 313.061 3.48214L320.091 9.28202C321.569 10.5014 323.704 10.5014 325.182 9.28202L332.212 3.48214C333.69 2.2628 335.825 2.2628 337.303 3.48214L344.336 9.28411C345.813 10.5025 347.946 10.5036 349.424 9.28661L357 3.04875" stroke="#686868" stroke-width="5" stroke-linecap="round"/>
<path d="M2.5 51.3821V48.0821C3.26667 48.0487 3.9 47.9487 4.4 47.7821C4.93333 47.6154 5.33333 47.2321 5.6 46.6321C5.9 46.0321 6.05 45.0654 6.05 43.7321V24.5821C6.05 23.6821 6.06667 22.8154 6.1 21.9821C6.16667 21.1487 6.21667 20.5154 6.25 20.0821C5.71667 20.1154 5.05 20.1487 4.25 20.1821C3.45 20.1821 2.86667 20.1987 2.5 20.2321V16.3821H16.85V19.6821C16.1167 19.7154 15.4833 19.8154 14.95 19.9821C14.4167 20.1487 14 20.5321 13.7 21.1321C13.4333 21.6987 13.3 22.6654 13.3 24.0321V31.8321H27.05V24.5821C27.05 23.6821 27.0667 22.8154 27.1 21.9821C27.1333 21.1487 27.1833 20.5154 27.25 20.0821C26.7167 20.1154 26.05 20.1487 25.25 20.1821C24.45 20.1821 23.8667 20.1987 23.5 20.2321V16.3821H37.85V19.6821C37.1167 19.7154 36.4833 19.8154 35.95 19.9821C35.4167 20.1487 35 20.5321 34.7 21.1321C34.4333 21.6987 34.3 22.6654 34.3 24.0321V43.1821C34.3 44.0821 34.2833 44.9487 34.25 45.7821C34.2167 46.6154 34.1667 47.2487 34.1 47.6821C34.6333 47.6154 35.3 47.5821 36.1 47.5821C36.9333 47.5487 37.5167 47.5321 37.85 47.5321V51.3821H23.5V48.0821C24.2667 48.0487 24.9 47.9487 25.4 47.7821C25.9333 47.6154 26.3333 47.2321 26.6 46.6321C26.9 46.0321 27.05 45.0654 27.05 43.7321V35.6321L13.3 35.7821V43.1821C13.3 44.0821 13.2833 44.9487 13.25 45.7821C13.2167 46.6154 13.1667 47.2487 13.1 47.6821C13.6333 47.6154 14.3 47.5821 15.1 47.5821C15.9333 47.5487 16.5167 47.5321 16.85 47.5321V51.3821H2.5ZM57.1961 51.3821C57.1294 50.9154 57.0794 50.5321 57.0461 50.2321C57.0461 49.8987 57.0294 49.5154 56.9961 49.0821C55.8628 50.2154 54.6628 51.0154 53.3961 51.4821C52.1294 51.9487 50.8461 52.1821 49.5461 52.1821C47.4128 52.1821 45.7461 51.5487 44.5461 50.2821C43.3461 49.0154 42.7461 47.4321 42.7461 45.5321C42.7461 43.9321 43.1461 42.5654 43.9461 41.4321C44.7794 40.2987 45.8628 39.3821 47.1961 38.6821C48.5628 37.9487 50.0628 37.3987 51.6961 37.0321C53.3628 36.6321 55.0294 36.3987 56.6961 36.3321V33.7321C56.6961 32.8654 56.5794 32.0821 56.3461 31.3821C56.1461 30.6821 55.7794 30.1321 55.2461 29.7321C54.7461 29.3321 54.0294 29.1487 53.0961 29.1821C52.4628 29.2154 51.8461 29.3487 51.2461 29.5821C50.6461 29.8154 50.1294 30.1487 49.6961 30.5821C49.9628 30.8821 50.1294 31.2154 50.1961 31.5821C50.2628 31.9154 50.2961 32.2154 50.2961 32.4821C50.2961 33.1487 50.0294 33.8487 49.4961 34.5821C48.9628 35.2821 48.1128 35.6154 46.9461 35.5821C45.9461 35.5487 45.1794 35.1987 44.6461 34.5321C44.1128 33.8654 43.8461 33.0821 43.8461 32.1821C43.8461 30.8487 44.3128 29.6987 45.2461 28.7321C46.2128 27.7321 47.4961 26.9654 49.0961 26.4321C50.6961 25.8654 52.4628 25.5821 54.3961 25.5821C57.3294 25.5821 59.5961 26.3487 61.1961 27.8821C62.8294 29.3821 63.6461 31.7987 63.6461 35.1321C63.6461 36.2654 63.6461 37.2321 63.6461 38.0321C63.6461 38.8321 63.6294 39.6321 63.5961 40.4321C63.5961 41.2321 63.5961 42.1987 63.5961 43.3321C63.5961 43.7987 63.5794 44.4654 63.5461 45.3321C63.5128 46.1654 63.4628 46.9654 63.3961 47.7321C63.9628 47.6654 64.5628 47.6321 65.1961 47.6321C65.8294 47.5987 66.3128 47.5821 66.6461 47.5821V51.3821H57.1961ZM56.6461 39.8821C55.7128 39.9821 54.8294 40.1487 53.9961 40.3821C53.1628 40.6154 52.4294 40.9321 51.7961 41.3321C51.1961 41.7321 50.7128 42.2154 50.3461 42.7821C50.0128 43.3487 49.8461 43.9821 49.8461 44.6821C49.8794 45.6154 50.1794 46.2821 50.7461 46.6821C51.3128 47.0821 51.9628 47.2821 52.6961 47.2821C53.4628 47.2821 54.1794 47.1154 54.8461 46.7821C55.5128 46.4487 56.1128 46.0154 56.6461 45.4821C56.6461 45.1487 56.6461 44.8321 56.6461 44.5321C56.6461 44.1987 56.6461 43.8654 56.6461 43.5321C56.6461 42.9321 56.6461 42.3321 56.6461 41.7321C56.6461 41.0987 56.6461 40.4821 56.6461 39.8821ZM71.1168 51.3821V48.1321C72.0501 48.1321 72.7168 47.9487 73.1168 47.5821C73.5501 47.2154 73.8168 46.6987 73.9168 46.0321C74.0501 45.3321 74.1168 44.5487 74.1168 43.6821V34.4321C74.1168 33.9654 74.1335 33.2987 74.1668 32.4321C74.2001 31.5654 74.2335 30.7654 74.2668 30.0321L71.0668 30.1821V26.3821H83.7168V29.6321C82.8835 29.6321 82.2668 29.8154 81.8668 30.1821C81.4668 30.5487 81.2168 31.0654 81.1168 31.7321C81.0168 32.3987 80.9668 33.1821 80.9668 34.0821V43.3321C80.9668 43.7987 80.9501 44.4321 80.9168 45.2321C80.8835 45.9987 80.8335 46.7321 80.7668 47.4321H85.1668C86.1001 47.4321 86.7668 47.2821 87.1668 46.9821C87.6001 46.6487 87.8668 46.1987 87.9668 45.6321C88.1001 45.0654 88.1668 44.4154 88.1668 43.6821V34.4321C88.1668 33.9654 88.1835 33.2987 88.2168 32.4321C88.2501 31.5654 88.3001 30.7654 88.3668 30.0321L85.8168 30.1821V26.3821H97.7168V29.6321C96.8835 29.6321 96.2668 29.8154 95.8668 30.1821C95.5001 30.5487 95.2668 31.0654 95.1668 31.7321C95.0668 32.3987 95.0168 33.1821 95.0168 34.0821V43.3321C95.0168 43.7987 95.0001 44.4154 94.9668 45.1821C94.9335 45.9487 94.8835 46.6987 94.8168 47.4321H99.2168C100.15 47.4321 100.817 47.2821 101.217 46.9821C101.65 46.6487 101.917 46.1987 102.017 45.6321C102.15 45.0654 102.217 44.4154 102.217 43.6821V34.4321C102.217 33.9654 102.233 33.2987 102.267 32.4321C102.3 31.5654 102.35 30.7654 102.417 30.0321L99.9168 30.1821V26.3821H112.017V29.6321C111.117 29.6321 110.45 29.8154 110.017 30.1821C109.617 30.5487 109.35 31.0654 109.217 31.7321C109.117 32.3987 109.067 33.1821 109.067 34.0821V43.3321C109.067 43.7987 109.05 44.4654 109.017 45.3321C108.983 46.1654 108.933 46.9654 108.867 47.7321L112.117 47.5821V51.3821H71.1168ZM130.732 29.6321C129.832 29.6321 129.165 29.8154 128.732 30.1821C128.332 30.5487 128.065 31.0654 127.932 31.7321C127.832 32.3987 127.782 33.1821 127.782 34.0821V43.3321C127.782 43.7987 127.765 44.4654 127.732 45.3321C127.698 46.1654 127.648 46.9654 127.582 47.7321C128.115 47.6654 128.698 47.6321 129.332 47.6321C129.998 47.5987 130.498 47.5821 130.832 47.5821V51.3821H117.732V48.1321C118.665 48.1321 119.332 47.9487 119.732 47.5821C120.132 47.2154 120.382 46.6987 120.482 46.0321C120.615 45.3321 120.682 44.5487 120.682 43.6821V34.4321C120.682 33.9654 120.698 33.2987 120.732 32.4321C120.765 31.5654 120.815 30.7654 120.882 30.0321C120.348 30.0654 119.765 30.0987 119.132 30.1321C118.498 30.1654 117.998 30.1821 117.632 30.1821V26.3821H130.732V29.6321ZM138.132 30.5821L140.532 33.0821L126.182 46.8821L123.732 44.3321L138.132 30.5821ZM146.932 29.6321C146.032 29.6321 145.365 29.8154 144.932 30.1821C144.532 30.5487 144.265 31.0654 144.132 31.7321C144.032 32.3987 143.982 33.1821 143.982 34.0821V43.3321C143.982 43.7987 143.965 44.4654 143.932 45.3321C143.898 46.1654 143.848 46.9654 143.782 47.7321C144.315 47.6654 144.898 47.6321 145.532 47.6321C146.198 47.5987 146.698 47.5821 147.032 47.5821V51.3821H133.932V48.1321C134.865 48.1321 135.532 47.9487 135.932 47.5821C136.332 47.2154 136.582 46.6987 136.682 46.0321C136.815 45.3321 136.882 44.5487 136.882 43.6821V34.4321C136.882 33.9654 136.898 33.2987 136.932 32.4321C136.965 31.5654 137.015 30.7654 137.082 30.0321C136.548 30.0654 135.965 30.0987 135.332 30.1321C134.698 30.1654 134.198 30.1821 133.832 30.1821V26.3821H146.932V29.6321ZM179.977 29.6321C179.043 29.6321 178.36 29.8154 177.927 30.1821C177.527 30.5487 177.26 31.0654 177.127 31.7321C177.027 32.3987 176.977 33.1821 176.977 34.0821V43.3321C176.977 43.7987 176.96 44.4654 176.927 45.3321C176.893 46.1654 176.843 46.9654 176.777 47.7321L180.027 47.5821V51.3821H166.877V48.1321C167.81 48.1321 168.477 47.9487 168.877 47.5821C169.31 47.2154 169.577 46.6987 169.677 46.0321C169.81 45.3321 169.877 44.5487 169.877 43.6821V34.4321C169.877 33.9654 169.893 33.2987 169.927 32.4321C169.96 31.5654 169.993 30.7654 170.027 30.0321L166.827 30.1821V26.3821H179.977V29.6321ZM195.877 29.6321C194.943 29.6321 194.26 29.8154 193.827 30.1821C193.427 30.5487 193.16 31.0654 193.027 31.7321C192.927 32.3987 192.877 33.1821 192.877 34.0821V43.3321C192.877 43.7987 192.86 44.4654 192.827 45.3321C192.827 46.1654 192.793 46.9654 192.727 47.7321L195.977 47.5821V51.3821H182.777V48.1321C183.71 48.1321 184.377 47.9487 184.777 47.5821C185.21 47.2154 185.477 46.6987 185.577 46.0321C185.71 45.3321 185.777 44.5487 185.777 43.6821V34.4321C185.777 33.9654 185.793 33.2987 185.827 32.4321C185.86 31.5654 185.91 30.7654 185.977 30.0321L182.727 30.1821V26.3821H195.877V29.6321ZM173.777 36.6821H187.177V40.5321L173.777 40.6321V36.6821ZM213.827 52.1821C211.427 52.1821 209.261 51.6654 207.327 50.6321C205.394 49.5987 203.861 48.1321 202.727 46.2321C201.627 44.2987 201.077 42.0321 201.077 39.4321C201.077 36.6654 201.644 34.2487 202.777 32.1821C203.944 30.0821 205.477 28.4654 207.377 27.3321C209.311 26.1654 211.411 25.5821 213.677 25.5821C216.077 25.5821 218.227 26.0987 220.127 27.1321C222.027 28.1654 223.527 29.6487 224.627 31.5821C225.727 33.4821 226.277 35.7654 226.277 38.4321C226.277 41.2321 225.744 43.6654 224.677 45.7321C223.611 47.7987 222.144 49.3987 220.277 50.5321C218.411 51.6321 216.261 52.1821 213.827 52.1821ZM214.027 48.6321C215.361 48.5987 216.361 48.1321 217.027 47.2321C217.727 46.3321 218.211 45.1987 218.477 43.8321C218.744 42.4654 218.877 41.0821 218.877 39.6821C218.877 38.4487 218.777 37.1987 218.577 35.9321C218.411 34.6654 218.127 33.5154 217.727 32.4821C217.327 31.4487 216.777 30.6154 216.077 29.9821C215.411 29.3487 214.577 29.0487 213.577 29.0821C212.277 29.1154 211.244 29.5821 210.477 30.4821C209.744 31.3821 209.211 32.5154 208.877 33.8821C208.577 35.2154 208.427 36.6154 208.427 38.0821C208.427 39.7821 208.611 41.4487 208.977 43.0821C209.344 44.7154 209.927 46.0654 210.727 47.1321C211.561 48.1654 212.661 48.6654 214.027 48.6321ZM230.748 51.3821V48.1321C231.814 48.0654 232.614 47.8487 233.148 47.4821C233.681 47.1154 234.014 46.4154 234.148 45.3821L235.848 32.3321C235.914 31.8654 235.964 31.4487 235.998 31.0821C236.031 30.6821 236.098 30.3321 236.198 30.0321L232.248 30.1821V26.3821H241.998L247.748 40.0821C248.014 40.7154 248.314 41.4154 248.648 42.1821C248.981 42.9487 249.264 43.6654 249.498 44.3321C249.698 43.7654 249.898 43.2154 250.098 42.6821C250.298 42.1487 250.498 41.5987 250.698 41.0321L255.998 26.3821H265.898V29.1821C264.864 29.2154 264.098 29.4487 263.598 29.8821C263.098 30.3154 262.931 30.9821 263.098 31.8821L265.348 44.7821C265.548 45.7487 265.598 46.7321 265.498 47.7321L268.248 47.5821V51.3821H256.348V48.1321C257.414 48.1321 258.198 47.9487 258.698 47.5821C259.198 47.2154 259.348 46.4987 259.148 45.4321L256.998 33.6821L250.298 51.3821H246.348L240.848 38.2821C240.514 37.4821 240.214 36.7487 239.948 36.0821C239.714 35.3821 239.464 34.6654 239.198 33.9321C239.198 34.7654 239.164 35.5821 239.098 36.3821C239.031 37.1821 238.914 38.0987 238.748 39.1321L237.748 45.5321C237.714 45.9321 237.648 46.2987 237.548 46.6321C237.481 46.9654 237.398 47.3154 237.298 47.6821L240.598 47.5821V51.3821H230.748ZM284.738 52.1821C282.305 52.1821 280.155 51.6487 278.288 50.5821C276.421 49.4821 274.971 47.9487 273.938 45.9821C272.905 43.9821 272.388 41.6321 272.388 38.9321C272.388 36.5987 272.905 34.4154 273.938 32.3821C274.971 30.3487 276.421 28.7154 278.288 27.4821C280.188 26.2154 282.388 25.5821 284.888 25.5821C286.288 25.5821 287.655 25.7821 288.988 26.1821C290.321 26.5487 291.521 27.1987 292.588 28.1321C293.688 29.0654 294.555 30.3321 295.188 31.9321C295.855 33.5321 296.171 35.5321 296.138 37.9321L279.738 38.2321C279.738 40.0321 279.955 41.6487 280.388 43.0821C280.855 44.5154 281.605 45.6487 282.638 46.4821C283.671 47.3154 285.055 47.7321 286.788 47.7321C287.455 47.7321 288.205 47.6154 289.038 47.3821C289.905 47.1487 290.771 46.7654 291.638 46.2321C292.538 45.6654 293.371 44.9154 294.138 43.9821L296.388 46.0821C295.188 47.7821 293.905 49.0821 292.538 49.9821C291.171 50.8487 289.805 51.4321 288.438 51.7321C287.105 52.0321 285.871 52.1821 284.738 52.1821ZM280.038 34.7321H289.238C289.205 33.3321 289.005 32.2321 288.638 31.4321C288.305 30.5987 287.838 29.9987 287.238 29.6321C286.638 29.2654 285.938 29.0821 285.138 29.0821C283.671 29.0821 282.521 29.6154 281.688 30.6821C280.855 31.7154 280.305 33.0654 280.038 34.7321ZM300.792 64.1321V60.8821C301.726 60.8821 302.392 60.6987 302.792 60.3321C303.226 59.9654 303.492 59.4321 303.592 58.7321C303.726 58.0654 303.792 57.2987 303.792 56.4321V35.2821C303.792 34.6821 303.809 34.0154 303.842 33.2821C303.876 32.5154 303.926 31.7654 303.992 31.0321C303.459 31.0654 302.826 31.0987 302.092 31.1321C301.359 31.1321 300.809 31.1487 300.442 31.1821V27.3821C302.009 27.3821 303.309 27.2987 304.342 27.1321C305.409 26.9654 306.242 26.7654 306.842 26.5321C307.476 26.2987 307.909 26.0821 308.142 25.8821H310.592C310.659 26.2154 310.709 26.6321 310.742 27.1321C310.776 27.5987 310.809 27.9821 310.842 28.2821C312.009 27.2821 313.159 26.5821 314.292 26.1821C315.459 25.7821 316.559 25.5821 317.592 25.5821C319.592 25.5821 321.342 26.0987 322.842 27.1321C324.376 28.1654 325.559 29.6321 326.392 31.5321C327.259 33.4321 327.692 35.6654 327.692 38.2321C327.692 40.8987 327.176 43.2987 326.142 45.4321C325.109 47.5321 323.659 49.1821 321.792 50.3821C319.959 51.5821 317.792 52.1821 315.292 52.1821C314.392 52.1821 313.576 52.0821 312.842 51.8821C312.142 51.7154 311.476 51.5154 310.842 51.2821V56.0821C310.842 56.5487 310.826 57.1987 310.792 58.0321C310.792 58.8987 310.759 59.7154 310.692 60.4821C311.226 60.4154 311.809 60.3654 312.442 60.3321C313.076 60.3321 313.559 60.3321 313.892 60.3321V64.1321H300.792ZM314.492 48.4321C316.026 48.3987 317.209 47.9487 318.042 47.0821C318.909 46.1821 319.509 45.0154 319.842 43.5821C320.176 42.1487 320.342 40.6154 320.342 38.9821C320.342 37.4487 320.159 35.9987 319.792 34.6321C319.426 33.2654 318.842 32.1654 318.042 31.3321C317.242 30.4654 316.192 30.0487 314.892 30.0821C314.059 30.1154 313.292 30.3321 312.592 30.7321C311.892 31.0987 311.309 31.6154 310.842 32.2821C310.842 33.3154 310.842 34.3487 310.842 35.3821C310.842 36.3821 310.842 37.3821 310.842 38.3821C310.842 39.3821 310.842 40.3987 310.842 41.4321C310.842 42.4321 310.842 43.4487 310.842 44.4821C310.842 45.4821 310.842 46.4987 310.842 47.5321C311.209 47.7654 311.726 47.9821 312.392 48.1821C313.059 48.3821 313.759 48.4654 314.492 48.4321ZM346.721 51.3821C346.655 50.9154 346.605 50.5321 346.571 50.2321C346.571 49.8987 346.555 49.5154 346.521 49.0821C345.388 50.2154 344.188 51.0154 342.921 51.4821C341.655 51.9487 340.371 52.1821 339.071 52.1821C336.938 52.1821 335.271 51.5487 334.071 50.2821C332.871 49.0154 332.271 47.4321 332.271 45.5321C332.271 43.9321 332.671 42.5654 333.471 41.4321C334.305 40.2987 335.388 39.3821 336.721 38.6821C338.088 37.9487 339.588 37.3987 341.221 37.0321C342.888 36.6321 344.555 36.3987 346.221 36.3321V33.7321C346.221 32.8654 346.105 32.0821 345.871 31.3821C345.671 30.6821 345.305 30.1321 344.771 29.7321C344.271 29.3321 343.555 29.1487 342.621 29.1821C341.988 29.2154 341.371 29.3487 340.771 29.5821C340.171 29.8154 339.655 30.1487 339.221 30.5821C339.488 30.8821 339.655 31.2154 339.721 31.5821C339.788 31.9154 339.821 32.2154 339.821 32.4821C339.821 33.1487 339.555 33.8487 339.021 34.5821C338.488 35.2821 337.638 35.6154 336.471 35.5821C335.471 35.5487 334.705 35.1987 334.171 34.5321C333.638 33.8654 333.371 33.0821 333.371 32.1821C333.371 30.8487 333.838 29.6987 334.771 28.7321C335.738 27.7321 337.021 26.9654 338.621 26.4321C340.221 25.8654 341.988 25.5821 343.921 25.5821C346.855 25.5821 349.121 26.3487 350.721 27.8821C352.355 29.3821 353.171 31.7987 353.171 35.1321C353.171 36.2654 353.171 37.2321 353.171 38.0321C353.171 38.8321 353.155 39.6321 353.121 40.4321C353.121 41.2321 353.121 42.1987 353.121 43.3321C353.121 43.7987 353.105 44.4654 353.071 45.3321C353.038 46.1654 352.988 46.9654 352.921 47.7321C353.488 47.6654 354.088 47.6321 354.721 47.6321C355.355 47.5987 355.838 47.5821 356.171 47.5821V51.3821H346.721ZM346.171 39.8821C345.238 39.9821 344.355 40.1487 343.521 40.3821C342.688 40.6154 341.955 40.9321 341.321 41.3321C340.721 41.7321 340.238 42.2154 339.871 42.7821C339.538 43.3487 339.371 43.9821 339.371 44.6821C339.405 45.6154 339.705 46.2821 340.271 46.6821C340.838 47.0821 341.488 47.2821 342.221 47.2821C342.988 47.2821 343.705 47.1154 344.371 46.7821C345.038 46.4487 345.638 46.0154 346.171 45.4821C346.171 45.1487 346.171 44.8321 346.171 44.5321C346.171 44.1987 346.171 43.8654 346.171 43.5321C346.171 42.9321 346.171 42.3321 346.171 41.7321C346.171 41.0987 346.171 40.4821 346.171 39.8821Z" fill="#2F70D9"/>
</svg>
