<svg width="427" height="66" viewBox="0 0 427 66" fill="none" xmlns="http://www.w3.org/2000/svg">
<path d="M294 9.71554L302.261 3.33452C303.739 2.19262 305.81 2.22585 307.251 3.41455L314.364 9.28214C315.842 10.5015 317.977 10.5015 319.455 9.28214L326.485 3.48227C327.963 2.26292 330.098 2.26292 331.576 3.48227L338.606 9.28214C340.084 10.5015 342.219 10.5015 343.697 9.28214L350.727 3.48227C352.205 2.26292 354.34 2.26292 355.818 3.48227L362.848 9.28214C364.326 10.5015 366.461 10.5015 367.939 9.28214L374.97 3.48227C376.448 2.26292 378.583 2.26292 380.061 3.48227L387.091 9.28214C388.569 10.5015 390.704 10.5015 392.182 9.28214L399.212 3.48227C400.69 2.26292 402.825 2.26292 404.303 3.48227L411.336 9.28424C412.813 10.5026 414.946 10.5037 416.424 9.28673L424 3.04887" stroke="#686868" stroke-width="5" stroke-linecap="round"/>
<path d="M20.4 51.8822C19.2667 49.1155 18.1333 46.3655 17 43.6322C15.9 40.8989 14.7833 38.1655 13.65 35.4322C13.3833 34.7989 13.0333 33.9155 12.6 32.7822C12.2 31.6155 11.7667 30.2822 11.3 28.7822C10.8667 27.2822 10.4667 25.7322 10.1 24.1322C10.1667 25.9989 10.2167 27.7655 10.25 29.4322C10.2833 31.0655 10.2833 32.6322 10.25 34.1322C10.25 34.8655 10.25 35.6155 10.25 36.3822C10.25 37.1489 10.2333 37.9155 10.2 38.6822C10.2 39.4155 10.2 40.1655 10.2 40.9322C10.2 41.6655 10.2 42.4155 10.2 43.1822C10.2 44.0822 10.1667 44.9489 10.1 45.7822C10.0667 46.6155 10.0167 47.2489 9.95 47.6822C10.5167 47.6155 11.2 47.5822 12 47.5822C12.8333 47.5489 13.4167 47.5322 13.75 47.5322V51.3822H2.35V48.0822C3.11667 48.0489 3.75 47.9489 4.25 47.7822C4.78333 47.6155 5.18333 47.2322 5.45 46.6322C5.75 46.0322 5.9 45.0655 5.9 43.7322L6.2 24.5822C6.23333 23.6822 6.26667 22.8155 6.3 21.9822C6.33333 21.1489 6.36667 20.5155 6.4 20.0822C5.86667 20.1155 5.2 20.1489 4.4 20.1822C3.6 20.1822 3.01667 20.1989 2.65 20.2322V16.3822H13.7L21.25 35.7322C21.55 36.4989 21.8833 37.3989 22.25 38.4322C22.6167 39.4322 22.9667 40.4155 23.3 41.3822C23.6333 42.3155 23.8833 43.0655 24.05 43.6322H24.1C24.5333 42.4655 24.9333 41.3322 25.3 40.2322C25.6667 39.1322 26.05 38.0655 26.45 37.0322C27.75 33.5655 29.0333 30.1155 30.3 26.6822C31.6 23.2489 32.9 19.8155 34.2 16.3822H45.75V19.6822C45.0167 19.7155 44.3667 19.8155 43.8 19.9822C43.2333 20.1489 42.8 20.5322 42.5 21.1322C42.2333 21.6989 42.1167 22.6655 42.15 24.0322L42.9 43.1822C42.9667 44.0822 42.9667 44.9489 42.9 45.7822C42.8333 46.6155 42.7667 47.2489 42.7 47.6822C43.2667 47.6155 43.95 47.5822 44.75 47.5822C45.5833 47.5489 46.1667 47.5322 46.5 47.5322V51.3822H32.6V48.0822C33.3667 48.0489 34.0167 47.9489 34.55 47.7822C35.1167 47.6155 35.5333 47.2322 35.8 46.6322C36.1 46.0322 36.2167 45.0655 36.15 43.7322L35.75 33.1322C35.75 32.7322 35.7167 32.0489 35.65 31.0822C35.5833 30.0822 35.5167 28.9989 35.45 27.8322C35.4167 26.6322 35.3833 25.5155 35.35 24.4822C35.25 24.7155 35.15 24.9489 35.05 25.1822C34.95 25.3822 34.8667 25.5989 34.8 25.8322L25.05 51.8822H20.4ZM52.234 51.3822V48.1322C53.134 48.0989 53.8507 47.9489 54.384 47.6822C54.9507 47.3822 55.234 46.5155 55.234 45.0822V34.4322C55.234 33.9655 55.2507 33.2989 55.284 32.4322C55.3173 31.5655 55.3507 30.7655 55.384 30.0322C54.8507 30.0655 54.2673 30.0989 53.634 30.1322C53.034 30.1655 52.5507 30.1822 52.184 30.1822V26.3822H65.334V29.6322C64.4007 29.6322 63.7173 29.8155 63.284 30.1822C62.884 30.5489 62.6173 31.0655 62.484 31.7322C62.384 32.3989 62.334 33.1822 62.334 34.0822L62.384 36.2822L64.684 36.1822C67.684 36.0822 70.0007 36.3489 71.634 36.9822C73.2673 37.6155 74.4007 38.5155 75.034 39.6822C75.6673 40.8155 75.984 42.0822 75.984 43.4822C75.984 45.2822 75.584 46.7655 74.784 47.9322C73.984 49.0989 72.9173 49.9655 71.584 50.5322C70.2507 51.0989 68.784 51.3822 67.184 51.3822H52.234ZM62.034 47.9822C62.734 47.9822 63.3673 47.9822 63.934 47.9822C64.534 47.9822 65.134 47.9655 65.734 47.9322C66.7007 47.8655 67.5007 47.4822 68.134 46.7822C68.8007 46.0489 69.134 45.0322 69.134 43.7322C69.2007 42.2322 68.8507 41.1155 68.084 40.3822C67.3173 39.6489 66.4007 39.2822 65.334 39.2822C64.6673 39.3155 64.1173 39.3322 63.684 39.3322C63.284 39.2989 62.834 39.2989 62.334 39.3322V44.9822C62.334 45.5822 62.3007 46.1322 62.234 46.6322C62.1673 47.1322 62.1007 47.5822 62.034 47.9822ZM77.784 51.3822V48.1322C78.7173 48.1322 79.384 47.9489 79.784 47.5822C80.2173 47.2155 80.484 46.6989 80.584 46.0322C80.7173 45.3322 80.784 44.5489 80.784 43.6822V34.4322C80.784 33.9655 80.8007 33.2989 80.834 32.4322C80.8673 31.5655 80.9173 30.7655 80.984 30.0322C80.4507 30.0655 79.8673 30.0989 79.234 30.1322C78.6007 30.1655 78.1007 30.1822 77.734 30.1822V26.3822H90.834V29.6322C89.934 29.6322 89.2673 29.8155 88.834 30.1822C88.434 30.5489 88.1673 31.0655 88.034 31.7322C87.934 32.3989 87.884 33.1822 87.884 34.0822V43.3322C87.884 43.7989 87.8673 44.4655 87.834 45.3322C87.8007 46.1655 87.7507 46.9655 87.684 47.7322C88.2173 47.6655 88.8007 47.6322 89.434 47.6322C90.1007 47.5989 90.6007 47.5822 90.934 47.5822V51.3822H77.784ZM111.289 51.3822V48.1322C112.222 48.1322 112.889 47.9489 113.289 47.5822C113.722 47.2155 113.989 46.6989 114.089 46.0322C114.222 45.3322 114.289 44.5489 114.289 43.6822V34.4322C114.289 33.9655 114.305 33.2989 114.339 32.4322C114.372 31.5655 114.405 30.7655 114.439 30.0322L111.239 30.1822V26.3822H140.039V29.6322C139.139 29.6322 138.472 29.8155 138.039 30.1822C137.639 30.5489 137.372 31.0655 137.239 31.7322C137.139 32.3989 137.089 33.1822 137.089 34.0822V43.3322C137.089 43.7989 137.072 44.4655 137.039 45.3322C137.005 46.1655 136.955 46.9655 136.889 47.7322L140.139 47.5822V51.3822H126.989V48.1322C127.922 48.1322 128.589 47.9489 128.989 47.5822C129.422 47.2155 129.689 46.6989 129.789 46.0322C129.922 45.3322 129.989 44.5489 129.989 43.6822V34.3822C129.989 33.9155 130.005 33.2989 130.039 32.5322C130.072 31.7322 130.122 30.9822 130.189 30.2822H124.389C123.455 30.2822 122.772 30.4489 122.339 30.7822C121.939 31.0822 121.672 31.5155 121.539 32.0822C121.439 32.6155 121.389 33.2655 121.389 34.0322V43.3322C121.389 43.7989 121.372 44.4655 121.339 45.3322C121.305 46.1655 121.255 46.9655 121.189 47.7322L124.439 47.5822V51.3822H111.289ZM145.245 64.1322V60.8822C146.179 60.8822 146.845 60.6989 147.245 60.3322C147.679 59.9655 147.945 59.4322 148.045 58.7322C148.179 58.0655 148.245 57.2989 148.245 56.4322V35.2822C148.245 34.6822 148.262 34.0155 148.295 33.2822C148.329 32.5155 148.379 31.7655 148.445 31.0322C147.912 31.0655 147.279 31.0989 146.545 31.1322C145.812 31.1322 145.262 31.1489 144.895 31.1822V27.3822C146.462 27.3822 147.762 27.2989 148.795 27.1322C149.862 26.9655 150.695 26.7655 151.295 26.5322C151.929 26.2989 152.362 26.0822 152.595 25.8822H155.045C155.112 26.2155 155.162 26.6322 155.195 27.1322C155.229 27.5989 155.262 27.9822 155.295 28.2822C156.462 27.2822 157.612 26.5822 158.745 26.1822C159.912 25.7822 161.012 25.5822 162.045 25.5822C164.045 25.5822 165.795 26.0989 167.295 27.1322C168.829 28.1655 170.012 29.6322 170.845 31.5322C171.712 33.4322 172.145 35.6655 172.145 38.2322C172.145 40.8989 171.629 43.2989 170.595 45.4322C169.562 47.5322 168.112 49.1822 166.245 50.3822C164.412 51.5822 162.245 52.1822 159.745 52.1822C158.845 52.1822 158.029 52.0822 157.295 51.8822C156.595 51.7155 155.929 51.5155 155.295 51.2822V56.0822C155.295 56.5489 155.279 57.1989 155.245 58.0322C155.245 58.8989 155.212 59.7155 155.145 60.4822C155.679 60.4155 156.262 60.3655 156.895 60.3322C157.529 60.3322 158.012 60.3322 158.345 60.3322V64.1322H145.245ZM158.945 48.4322C160.479 48.3989 161.662 47.9489 162.495 47.0822C163.362 46.1822 163.962 45.0155 164.295 43.5822C164.629 42.1489 164.795 40.6155 164.795 38.9822C164.795 37.4489 164.612 35.9989 164.245 34.6322C163.879 33.2655 163.295 32.1655 162.495 31.3322C161.695 30.4655 160.645 30.0489 159.345 30.0822C158.512 30.1155 157.745 30.3322 157.045 30.7322C156.345 31.0989 155.762 31.6155 155.295 32.2822C155.295 33.3155 155.295 34.3489 155.295 35.3822C155.295 36.3822 155.295 37.3822 155.295 38.3822C155.295 39.3822 155.295 40.3989 155.295 41.4322C155.295 42.4322 155.295 43.4489 155.295 44.4822C155.295 45.4822 155.295 46.4989 155.295 47.5322C155.662 47.7655 156.179 47.9822 156.845 48.1822C157.512 48.3822 158.212 48.4655 158.945 48.4322ZM189.125 52.1822C186.691 52.1822 184.541 51.6489 182.675 50.5822C180.808 49.4822 179.358 47.9489 178.325 45.9822C177.291 43.9822 176.775 41.6322 176.775 38.9322C176.775 36.5989 177.291 34.4155 178.325 32.3822C179.358 30.3489 180.808 28.7155 182.675 27.4822C184.575 26.2155 186.775 25.5822 189.275 25.5822C190.675 25.5822 192.041 25.7822 193.375 26.1822C194.708 26.5489 195.908 27.1989 196.975 28.1322C198.075 29.0655 198.941 30.3322 199.575 31.9322C200.241 33.5322 200.558 35.5322 200.525 37.9322L184.125 38.2322C184.125 40.0322 184.341 41.6489 184.775 43.0822C185.241 44.5155 185.991 45.6489 187.025 46.4822C188.058 47.3155 189.441 47.7322 191.175 47.7322C191.841 47.7322 192.591 47.6155 193.425 47.3822C194.291 47.1489 195.158 46.7655 196.025 46.2322C196.925 45.6655 197.758 44.9155 198.525 43.9822L200.775 46.0822C199.575 47.7822 198.291 49.0822 196.925 49.9822C195.558 50.8489 194.191 51.4322 192.825 51.7322C191.491 52.0322 190.258 52.1822 189.125 52.1822ZM184.425 34.7322H193.625C193.591 33.3322 193.391 32.2322 193.025 31.4322C192.691 30.5989 192.225 29.9989 191.625 29.6322C191.025 29.2655 190.325 29.0822 189.525 29.0822C188.058 29.0822 186.908 29.6155 186.075 30.6822C185.241 31.7155 184.691 33.0655 184.425 34.7322ZM204.729 60.5322V47.4822H207.279C208.046 47.4822 208.712 47.2489 209.279 46.7822C209.879 46.2822 210.396 45.6155 210.829 44.7822C211.196 44.0155 211.529 43.0155 211.829 41.7822C212.162 40.5489 212.446 39.2155 212.679 37.7822C212.946 36.3489 213.162 34.9322 213.329 33.5322C213.496 32.1322 213.612 30.8822 213.679 29.7822L208.929 30.1822V26.3822H233.729V29.6322C232.796 29.6322 232.112 29.8155 231.679 30.1822C231.279 30.5489 231.012 31.0655 230.879 31.7322C230.779 32.3989 230.729 33.1822 230.729 34.0822V43.3322C230.729 43.7989 230.712 44.4489 230.679 45.2822C230.646 46.1155 230.596 46.9155 230.529 47.6822L235.729 47.4822V60.5322H232.429C232.496 57.8989 232.229 55.7155 231.629 53.9822C231.062 52.2489 230.112 51.3822 228.779 51.3822H211.629C210.329 51.3822 209.379 52.2489 208.779 53.9822C208.212 55.7155 207.946 57.8989 207.979 60.5322H204.729ZM213.029 47.4822H220.679C221.612 47.4822 222.279 47.2989 222.679 46.9322C223.079 46.5655 223.329 46.0489 223.429 45.3822C223.562 44.6822 223.629 43.8989 223.629 43.0322V34.3822C223.629 33.9155 223.646 33.2989 223.679 32.5322C223.712 31.7322 223.762 30.9822 223.829 30.2822H219.879C219.079 30.2822 218.462 30.4322 218.029 30.7322C217.629 30.9989 217.362 31.5489 217.229 32.3822C216.962 34.4155 216.712 36.1489 216.479 37.5822C216.279 39.0155 216.046 40.2655 215.779 41.3322C215.512 42.3989 215.196 43.3822 214.829 44.2822C214.596 44.8155 214.329 45.3489 214.029 45.8822C213.729 46.3822 213.396 46.9155 213.029 47.4822ZM244.077 52.0822C242.544 52.0822 241.277 51.6655 240.277 50.8322C239.277 49.9989 238.777 48.9155 238.777 47.5822C238.777 46.4822 239.094 45.6489 239.727 45.0822C240.361 44.4822 241.194 44.1822 242.227 44.1822C243.294 44.1822 244.044 44.4655 244.477 45.0322C244.944 45.5989 245.177 46.2155 245.177 46.8822C245.177 47.3155 245.127 47.6489 245.027 47.8822C244.927 48.0822 244.811 48.2655 244.677 48.4322C244.777 48.5322 244.944 48.5822 245.177 48.5822C246.077 48.5822 246.861 47.8322 247.527 46.3322C248.194 44.8322 248.744 42.6822 249.177 39.8822C249.611 37.0822 249.944 33.7155 250.177 29.7822L245.427 30.1822V26.3822H269.977V29.6322C269.044 29.6322 268.361 29.8155 267.927 30.1822C267.527 30.5489 267.261 31.0655 267.127 31.7322C267.027 32.3989 266.977 33.1822 266.977 34.0822V43.3322C266.977 43.7989 266.961 44.4655 266.927 45.3322C266.894 46.1655 266.844 46.9655 266.777 47.7322L270.027 47.5822V51.3822H256.877V48.1322C257.811 48.1322 258.477 47.9489 258.877 47.5822C259.311 47.2155 259.577 46.6989 259.677 46.0322C259.811 45.3322 259.877 44.5489 259.877 43.6822V34.4322C259.877 33.9655 259.894 33.3489 259.927 32.5822C259.961 31.7822 260.011 31.0322 260.077 30.3322H256.327C255.527 30.3322 254.961 30.4655 254.627 30.7322C254.294 30.9989 254.094 31.5489 254.027 32.3822C253.827 35.7155 253.461 38.6155 252.927 41.0822C252.427 43.5489 251.761 45.5989 250.927 47.2322C250.127 48.8655 249.144 50.0822 247.977 50.8822C246.844 51.6822 245.544 52.0822 244.077 52.0822ZM289.522 51.3822C289.456 50.9155 289.406 50.5322 289.372 50.2322C289.372 49.8989 289.356 49.5155 289.322 49.0822C288.189 50.2155 286.989 51.0155 285.722 51.4822C284.456 51.9489 283.172 52.1822 281.872 52.1822C279.739 52.1822 278.072 51.5489 276.872 50.2822C275.672 49.0155 275.072 47.4322 275.072 45.5322C275.072 43.9322 275.472 42.5655 276.272 41.4322C277.106 40.2989 278.189 39.3822 279.522 38.6822C280.889 37.9489 282.389 37.3989 284.022 37.0322C285.689 36.6322 287.356 36.3989 289.022 36.3322V33.7322C289.022 32.8655 288.906 32.0822 288.672 31.3822C288.472 30.6822 288.106 30.1322 287.572 29.7322C287.072 29.3322 286.356 29.1489 285.422 29.1822C284.789 29.2155 284.172 29.3489 283.572 29.5822C282.972 29.8155 282.456 30.1489 282.022 30.5822C282.289 30.8822 282.456 31.2155 282.522 31.5822C282.589 31.9155 282.622 32.2155 282.622 32.4822C282.622 33.1489 282.356 33.8489 281.822 34.5822C281.289 35.2822 280.439 35.6155 279.272 35.5822C278.272 35.5489 277.506 35.1989 276.972 34.5322C276.439 33.8655 276.172 33.0822 276.172 32.1822C276.172 30.8489 276.639 29.6989 277.572 28.7322C278.539 27.7322 279.822 26.9655 281.422 26.4322C283.022 25.8655 284.789 25.5822 286.722 25.5822C289.656 25.5822 291.922 26.3489 293.522 27.8822C295.156 29.3822 295.972 31.7989 295.972 35.1322C295.972 36.2655 295.972 37.2322 295.972 38.0322C295.972 38.8322 295.956 39.6322 295.922 40.4322C295.922 41.2322 295.922 42.1989 295.922 43.3322C295.922 43.7989 295.906 44.4655 295.872 45.3322C295.839 46.1655 295.789 46.9655 295.722 47.7322C296.289 47.6655 296.889 47.6322 297.522 47.6322C298.156 47.5989 298.639 47.5822 298.972 47.5822V51.3822H289.522ZM288.972 39.8822C288.039 39.9822 287.156 40.1489 286.322 40.3822C285.489 40.6155 284.756 40.9322 284.122 41.3322C283.522 41.7322 283.039 42.2155 282.672 42.7822C282.339 43.3489 282.172 43.9822 282.172 44.6822C282.206 45.6155 282.506 46.2822 283.072 46.6822C283.639 47.0822 284.289 47.2822 285.022 47.2822C285.789 47.2822 286.506 47.1155 287.172 46.7822C287.839 46.4489 288.439 46.0155 288.972 45.4822C288.972 45.1489 288.972 44.8322 288.972 44.5322C288.972 44.1989 288.972 43.8655 288.972 43.5322C288.972 42.9322 288.972 42.3322 288.972 41.7322C288.972 41.0989 288.972 40.4822 288.972 39.8822ZM303.443 51.3822V48.1322C304.376 48.1322 305.043 47.9489 305.443 47.5822C305.876 47.2155 306.143 46.6989 306.243 46.0322C306.376 45.3322 306.443 44.5489 306.443 43.6822V34.4322C306.443 33.9655 306.46 33.2989 306.493 32.4322C306.526 31.5655 306.56 30.7655 306.593 30.0322C306.06 30.0655 305.476 30.0989 304.843 30.1322C304.243 30.1655 303.76 30.1822 303.393 30.1822V26.3822H324.293L324.493 35.4822H321.243C321.243 34.0822 321.076 33.0155 320.743 32.2822C320.443 31.5155 319.96 30.9989 319.293 30.7322C318.66 30.4322 317.843 30.2822 316.843 30.2822H313.543V43.3322C313.543 43.7989 313.526 44.4655 313.493 45.3322C313.46 46.1655 313.41 46.9655 313.343 47.7322L317.593 47.5822V51.3822H303.443ZM343.548 51.3822C343.481 50.9155 343.431 50.5322 343.398 50.2322C343.398 49.8989 343.381 49.5155 343.348 49.0822C342.214 50.2155 341.014 51.0155 339.748 51.4822C338.481 51.9489 337.198 52.1822 335.898 52.1822C333.764 52.1822 332.098 51.5489 330.898 50.2822C329.698 49.0155 329.098 47.4322 329.098 45.5322C329.098 43.9322 329.498 42.5655 330.298 41.4322C331.131 40.2989 332.214 39.3822 333.548 38.6822C334.914 37.9489 336.414 37.3989 338.048 37.0322C339.714 36.6322 341.381 36.3989 343.048 36.3322V33.7322C343.048 32.8655 342.931 32.0822 342.698 31.3822C342.498 30.6822 342.131 30.1322 341.598 29.7322C341.098 29.3322 340.381 29.1489 339.448 29.1822C338.814 29.2155 338.198 29.3489 337.598 29.5822C336.998 29.8155 336.481 30.1489 336.048 30.5822C336.314 30.8822 336.481 31.2155 336.548 31.5822C336.614 31.9155 336.648 32.2155 336.648 32.4822C336.648 33.1489 336.381 33.8489 335.848 34.5822C335.314 35.2822 334.464 35.6155 333.298 35.5822C332.298 35.5489 331.531 35.1989 330.998 34.5322C330.464 33.8655 330.198 33.0822 330.198 32.1822C330.198 30.8489 330.664 29.6989 331.598 28.7322C332.564 27.7322 333.848 26.9655 335.448 26.4322C337.048 25.8655 338.814 25.5822 340.748 25.5822C343.681 25.5822 345.948 26.3489 347.548 27.8822C349.181 29.3822 349.998 31.7989 349.998 35.1322C349.998 36.2655 349.998 37.2322 349.998 38.0322C349.998 38.8322 349.981 39.6322 349.948 40.4322C349.948 41.2322 349.948 42.1989 349.948 43.3322C349.948 43.7989 349.931 44.4655 349.898 45.3322C349.864 46.1655 349.814 46.9655 349.748 47.7322C350.314 47.6655 350.914 47.6322 351.548 47.6322C352.181 47.5989 352.664 47.5822 352.998 47.5822V51.3822H343.548ZM342.998 39.8822C342.064 39.9822 341.181 40.1489 340.348 40.3822C339.514 40.6155 338.781 40.9322 338.148 41.3322C337.548 41.7322 337.064 42.2155 336.698 42.7822C336.364 43.3489 336.198 43.9822 336.198 44.6822C336.231 45.6155 336.531 46.2822 337.098 46.6822C337.664 47.0822 338.314 47.2822 339.048 47.2822C339.814 47.2822 340.531 47.1155 341.198 46.7822C341.864 46.4489 342.464 46.0155 342.998 45.4822C342.998 45.1489 342.998 44.8322 342.998 44.5322C342.998 44.1989 342.998 43.8655 342.998 43.5322C342.998 42.9322 342.998 42.3322 342.998 41.7322C342.998 41.0989 342.998 40.4822 342.998 39.8822ZM369.218 52.1822C366.785 52.1822 364.635 51.6489 362.768 50.5822C360.902 49.4822 359.452 47.9489 358.418 45.9822C357.385 43.9822 356.868 41.6322 356.868 38.9322C356.868 36.5989 357.385 34.4155 358.418 32.3822C359.452 30.3489 360.902 28.7155 362.768 27.4822C364.668 26.2155 366.868 25.5822 369.368 25.5822C370.768 25.5822 372.135 25.7822 373.468 26.1822C374.802 26.5489 376.002 27.1989 377.068 28.1322C378.168 29.0655 379.035 30.3322 379.668 31.9322C380.335 33.5322 380.652 35.5322 380.618 37.9322L364.218 38.2322C364.218 40.0322 364.435 41.6489 364.868 43.0822C365.335 44.5155 366.085 45.6489 367.118 46.4822C368.152 47.3155 369.535 47.7322 371.268 47.7322C371.935 47.7322 372.685 47.6155 373.518 47.3822C374.385 47.1489 375.252 46.7655 376.118 46.2322C377.018 45.6655 377.852 44.9155 378.618 43.9822L380.868 46.0822C379.668 47.7822 378.385 49.0822 377.018 49.9822C375.652 50.8489 374.285 51.4322 372.918 51.7322C371.585 52.0322 370.352 52.1822 369.218 52.1822ZM364.518 34.7322H373.718C373.685 33.3322 373.485 32.2322 373.118 31.4322C372.785 30.5989 372.318 29.9989 371.718 29.6322C371.118 29.2655 370.418 29.0822 369.618 29.0822C368.152 29.0822 367.002 29.6155 366.168 30.6822C365.335 31.7155 364.785 33.0655 364.518 34.7322ZM385.123 51.3822V48.1322C386.189 48.0655 386.989 47.8489 387.523 47.4822C388.056 47.1155 388.389 46.4155 388.523 45.3822L390.223 32.3322C390.289 31.8655 390.339 31.4489 390.373 31.0822C390.406 30.6822 390.473 30.3322 390.573 30.0322L386.623 30.1822V26.3822H396.373L402.123 40.0822C402.389 40.7155 402.689 41.4155 403.023 42.1822C403.356 42.9489 403.639 43.6655 403.873 44.3322C404.073 43.7655 404.273 43.2155 404.473 42.6822C404.673 42.1489 404.873 41.5989 405.073 41.0322L410.373 26.3822H420.273V29.1822C419.239 29.2155 418.473 29.4489 417.973 29.8822C417.473 30.3155 417.306 30.9822 417.473 31.8822L419.723 44.7822C419.923 45.7489 419.973 46.7322 419.873 47.7322L422.623 47.5822V51.3822H410.723V48.1322C411.789 48.1322 412.573 47.9489 413.073 47.5822C413.573 47.2155 413.723 46.4989 413.523 45.4322L411.373 33.6822L404.673 51.3822H400.723L395.223 38.2822C394.889 37.4822 394.589 36.7489 394.323 36.0822C394.089 35.3822 393.839 34.6655 393.573 33.9322C393.573 34.7655 393.539 35.5822 393.473 36.3822C393.406 37.1822 393.289 38.0989 393.123 39.1322L392.123 45.5322C392.089 45.9322 392.023 46.2989 391.923 46.6322C391.856 46.9655 391.773 47.3155 391.673 47.6822L394.973 47.5822V51.3822H385.123Z" fill="#2F70D9"/>
</svg>
