<svg width="335" height="66" viewBox="0 0 335 66" fill="none" xmlns="http://www.w3.org/2000/svg">
<path d="M202 9.71547L210.261 3.33446C211.739 2.19256 213.81 2.22579 215.251 3.41449L222.364 9.28208C223.842 10.5014 225.977 10.5014 227.455 9.28208L234.485 3.48221C235.963 2.26286 238.098 2.26286 239.576 3.4822L246.606 9.28208C248.084 10.5014 250.219 10.5014 251.697 9.28208L258.727 3.48221C260.205 2.26286 262.34 2.26286 263.818 3.48221L270.848 9.28208C272.326 10.5014 274.461 10.5014 275.939 9.28208L282.97 3.48221C284.448 2.26286 286.583 2.26286 288.061 3.4822L295.091 9.28208C296.569 10.5014 298.704 10.5014 300.182 9.28208L307.212 3.48221C308.69 2.26286 310.825 2.26286 312.303 3.4822L319.336 9.28417C320.813 10.5026 322.946 10.5036 324.424 9.28667L332 3.04881" stroke="#686868" stroke-width="5" stroke-linecap="round"/>
<path d="M19.15 52.1821C15.9833 52.1821 13.2833 51.6488 11.05 50.5821C8.85 49.5155 7.06667 48.0988 5.7 46.3321C4.33333 44.5321 3.33333 42.5488 2.7 40.3821C2.06667 38.2155 1.75 36.0488 1.75 33.8821C1.75 31.7821 2.1 29.6655 2.8 27.5321C3.53333 25.3655 4.61667 23.3821 6.05 21.5821C7.51667 19.7821 9.35 18.3321 11.55 17.2321C13.75 16.1321 16.3333 15.5821 19.3 15.5821C22.3333 15.5821 24.95 16.1321 27.15 17.2321C29.35 18.3321 31.15 19.7988 32.55 21.6321C33.95 23.4321 34.9833 25.3988 35.65 27.5321C36.35 29.6655 36.7 31.7821 36.7 33.8821C36.7 35.9488 36.3333 38.0488 35.6 40.1821C34.9 42.3155 33.8167 44.2988 32.35 46.1321C30.9167 47.9321 29.1 49.3988 26.9 50.5321C24.7 51.6321 22.1167 52.1821 19.15 52.1821ZM19.7 48.5321C21.4333 48.5321 22.8833 48.1155 24.05 47.2821C25.2167 46.4155 26.15 45.2988 26.85 43.9321C27.55 42.5655 28.05 41.0821 28.35 39.4821C28.65 37.8488 28.8 36.2655 28.8 34.7321C28.8 32.4321 28.6 30.3321 28.2 28.4321C27.8 26.5321 27.1833 24.8988 26.35 23.5321C25.5167 22.1321 24.45 21.0655 23.15 20.3321C21.8833 19.5655 20.3833 19.1988 18.65 19.2321C16.95 19.2655 15.5167 19.7321 14.35 20.6321C13.1833 21.4988 12.25 22.6321 11.55 24.0321C10.85 25.3988 10.35 26.8988 10.05 28.5321C9.75 30.1655 9.6 31.7488 9.6 33.2821C9.6 34.8488 9.76667 36.5155 10.1 38.2821C10.4667 40.0488 11.0333 41.7155 11.8 43.2821C12.5667 44.8488 13.6 46.1155 14.9 47.0821C16.2 48.0488 17.8 48.5321 19.7 48.5321ZM56.7125 51.3821V48.1321C57.6458 48.1321 58.3125 47.9488 58.7125 47.5821C59.1458 47.2155 59.4125 46.6988 59.5125 46.0321C59.6458 45.3321 59.7125 44.5488 59.7125 43.6821V34.4321C59.7125 33.9655 59.7292 33.2988 59.7625 32.4321C59.7958 31.5655 59.8292 30.7655 59.8625 30.0321C59.3292 30.0655 58.7458 30.0988 58.1125 30.1321C57.5125 30.1655 57.0292 30.1821 56.6625 30.1821V26.3821H77.5625L77.7625 35.4821H74.5125C74.5125 34.0821 74.3458 33.0155 74.0125 32.2821C73.7125 31.5155 73.2292 30.9988 72.5625 30.7321C71.9292 30.4321 71.1125 30.2821 70.1125 30.2821H66.8125V43.3321C66.8125 43.7988 66.7958 44.4655 66.7625 45.3321C66.7292 46.1655 66.6792 46.9655 66.6125 47.7321L70.8625 47.5821V51.3821H56.7125ZM95.1672 52.1821C92.7672 52.1821 90.6005 51.6655 88.6672 50.6321C86.7339 49.5988 85.2005 48.1321 84.0672 46.2321C82.9672 44.2988 82.4172 42.0321 82.4172 39.4321C82.4172 36.6655 82.9839 34.2488 84.1172 32.1821C85.2839 30.0821 86.8172 28.4655 88.7172 27.3321C90.6505 26.1655 92.7505 25.5821 95.0172 25.5821C97.4172 25.5821 99.5672 26.0988 101.467 27.1321C103.367 28.1655 104.867 29.6488 105.967 31.5821C107.067 33.4821 107.617 35.7655 107.617 38.4321C107.617 41.2321 107.084 43.6655 106.017 45.7321C104.951 47.7988 103.484 49.3988 101.617 50.5321C99.7505 51.6321 97.6005 52.1821 95.1672 52.1821ZM95.3672 48.6321C96.7005 48.5988 97.7005 48.1321 98.3672 47.2321C99.0672 46.3321 99.5505 45.1988 99.8172 43.8321C100.084 42.4655 100.217 41.0821 100.217 39.6821C100.217 38.4488 100.117 37.1988 99.9172 35.9321C99.7505 34.6655 99.4672 33.5155 99.0672 32.4821C98.6672 31.4488 98.1172 30.6155 97.4172 29.9821C96.7505 29.3488 95.9172 29.0488 94.9172 29.0821C93.6172 29.1155 92.5839 29.5821 91.8172 30.4821C91.0839 31.3821 90.5505 32.5155 90.2172 33.8821C89.9172 35.2155 89.7672 36.6155 89.7672 38.0821C89.7672 39.7821 89.9505 41.4488 90.3172 43.0821C90.6839 44.7155 91.2672 46.0655 92.0672 47.1321C92.9005 48.1655 94.0005 48.6655 95.3672 48.6321ZM124.538 52.1821C122.304 52.1821 120.254 51.6821 118.388 50.6821C116.521 49.6821 115.021 48.2321 113.888 46.3321C112.788 44.4321 112.238 42.1321 112.238 39.4321C112.238 37.5321 112.554 35.7488 113.188 34.0821C113.821 32.4155 114.704 30.9488 115.838 29.6821C117.004 28.4155 118.371 27.4155 119.938 26.6821C121.538 25.9488 123.304 25.5821 125.238 25.5821C127.371 25.5821 129.138 25.9155 130.538 26.5821C131.971 27.2155 133.038 28.0655 133.738 29.1321C134.471 30.1655 134.838 31.2655 134.838 32.4321C134.838 33.3988 134.538 34.2655 133.938 35.0321C133.371 35.7655 132.554 36.1488 131.488 36.1821C130.221 36.2155 129.338 35.8655 128.838 35.1321C128.338 34.3655 128.088 33.6321 128.088 32.9321C128.088 32.6321 128.138 32.2821 128.238 31.8821C128.338 31.4488 128.488 31.0655 128.688 30.7321C128.454 30.2321 128.104 29.8655 127.638 29.6321C127.171 29.3988 126.688 29.2488 126.188 29.1821C125.721 29.0821 125.338 29.0488 125.038 29.0821C123.438 29.1821 122.121 29.9821 121.088 31.4821C120.054 32.9821 119.538 35.1488 119.538 37.9821C119.538 39.6488 119.738 41.2155 120.138 42.6821C120.571 44.1155 121.271 45.2988 122.238 46.2321C123.204 47.1655 124.504 47.6655 126.138 47.7321C127.538 47.7655 128.904 47.4321 130.238 46.7321C131.571 46.0321 132.704 45.0821 133.638 43.8821L135.937 46.1321C134.738 47.7988 133.488 49.0655 132.188 49.9321C130.888 50.7988 129.588 51.3821 128.288 51.6821C127.021 52.0155 125.771 52.1821 124.538 52.1821ZM144.616 51.3821V48.1321C145.55 48.1321 146.216 47.9488 146.616 47.5821C147.05 47.2155 147.316 46.6988 147.416 46.0321C147.55 45.3321 147.616 44.5488 147.616 43.6821V34.4321C147.616 33.9655 147.633 33.3488 147.666 32.5821C147.7 31.7821 147.733 31.0155 147.766 30.2821H146.516C145.016 30.2821 143.9 30.6655 143.166 31.4321C142.433 32.1655 142.066 33.5155 142.066 35.4821H138.816L139.016 26.3821H163.266L163.466 35.4821H160.216C160.216 33.5155 159.85 32.1655 159.116 31.4321C158.383 30.6655 157.266 30.2821 155.766 30.2821H154.666V43.3321C154.666 43.7988 154.65 44.4655 154.616 45.3321C154.583 46.1655 154.533 46.9655 154.466 47.7321L157.716 47.5821V51.3821H144.616ZM180.788 29.6321C179.888 29.6321 179.222 29.8155 178.788 30.1821C178.388 30.5488 178.122 31.0655 177.988 31.7321C177.888 32.3988 177.838 33.1821 177.838 34.0821V43.3321C177.838 43.7988 177.822 44.4655 177.788 45.3321C177.755 46.1655 177.705 46.9655 177.638 47.7321C178.172 47.6655 178.755 47.6321 179.388 47.6321C180.055 47.5988 180.555 47.5821 180.888 47.5821V51.3821H167.788V48.1321C168.722 48.1321 169.388 47.9488 169.788 47.5821C170.188 47.2155 170.438 46.6988 170.538 46.0321C170.672 45.3321 170.738 44.5488 170.738 43.6821V34.4321C170.738 33.9655 170.755 33.2988 170.788 32.4321C170.822 31.5655 170.872 30.7655 170.938 30.0321C170.405 30.0655 169.822 30.0988 169.188 30.1321C168.555 30.1655 168.055 30.1821 167.688 30.1821V26.3821H180.788V29.6321ZM188.188 30.5821L190.588 33.0821L176.238 46.8821L173.788 44.3321L188.188 30.5821ZM196.988 29.6321C196.088 29.6321 195.422 29.8155 194.988 30.1821C194.588 30.5488 194.322 31.0655 194.188 31.7321C194.088 32.3988 194.038 33.1821 194.038 34.0821V43.3321C194.038 43.7988 194.022 44.4655 193.988 45.3321C193.955 46.1655 193.905 46.9655 193.838 47.7321C194.372 47.6655 194.955 47.6321 195.588 47.6321C196.255 47.5988 196.755 47.5821 197.088 47.5821V51.3821H183.988V48.1321C184.922 48.1321 185.588 47.9488 185.988 47.5821C186.388 47.2155 186.638 46.6988 186.738 46.0321C186.872 45.3321 186.938 44.5488 186.938 43.6821V34.4321C186.938 33.9655 186.955 33.2988 186.988 32.4321C187.022 31.5655 187.072 30.7655 187.138 30.0321C186.605 30.0655 186.022 30.0988 185.388 30.1321C184.755 30.1655 184.255 30.1821 183.888 30.1821V26.3821H196.988V29.6321ZM215.398 29.6321C214.465 29.6321 213.782 29.8155 213.348 30.1821C212.948 30.5488 212.682 31.0655 212.548 31.7321C212.448 32.3988 212.398 33.1821 212.398 34.0821V43.3321C212.398 43.7988 212.382 44.4655 212.348 45.3321C212.315 46.1655 212.265 46.9655 212.198 47.7321L215.448 47.5821V51.3821H202.298V48.1321C203.232 48.1321 203.898 47.9488 204.298 47.5821C204.732 47.2155 204.998 46.6988 205.098 46.0321C205.232 45.3321 205.298 44.5488 205.298 43.6821V34.4321C205.298 33.9655 205.315 33.2988 205.348 32.4321C205.382 31.5655 205.415 30.7655 205.448 30.0321L202.248 30.1821V26.3821H215.398V29.6321ZM231.298 29.6321C230.365 29.6321 229.682 29.8155 229.248 30.1821C228.848 30.5488 228.582 31.0655 228.448 31.7321C228.348 32.3988 228.298 33.1821 228.298 34.0821V43.3321C228.298 43.7988 228.282 44.4655 228.248 45.3321C228.248 46.1655 228.215 46.9655 228.148 47.7321L231.398 47.5821V51.3821H218.198V48.1321C219.132 48.1321 219.798 47.9488 220.198 47.5821C220.632 47.2155 220.898 46.6988 220.998 46.0321C221.132 45.3321 221.198 44.5488 221.198 43.6821V34.4321C221.198 33.9655 221.215 33.2988 221.248 32.4321C221.282 31.5655 221.332 30.7655 221.398 30.0321L218.148 30.1821V26.3821H231.298V29.6321ZM209.198 36.6821H222.598V40.5321L209.198 40.6321V36.6821ZM249.999 29.6321C249.099 29.6321 248.433 29.8155 247.999 30.1821C247.599 30.5488 247.333 31.0655 247.199 31.7321C247.099 32.3988 247.049 33.1821 247.049 34.0821V43.3321C247.049 43.7988 247.033 44.4655 246.999 45.3321C246.966 46.1655 246.916 46.9655 246.849 47.7321C247.383 47.6655 247.966 47.6321 248.599 47.6321C249.266 47.5988 249.766 47.5821 250.099 47.5821V51.3821H236.999V48.1321C237.933 48.1321 238.599 47.9488 238.999 47.5821C239.399 47.2155 239.649 46.6988 239.749 46.0321C239.883 45.3321 239.949 44.5488 239.949 43.6821V34.4321C239.949 33.9655 239.966 33.2988 239.999 32.4321C240.033 31.5655 240.083 30.7655 240.149 30.0321C239.616 30.0655 239.033 30.0988 238.399 30.1321C237.766 30.1655 237.266 30.1821 236.899 30.1821V26.3821H249.999V29.6321ZM257.399 30.5821L259.799 33.0821L245.449 46.8821L242.999 44.3321L257.399 30.5821ZM266.199 29.6321C265.299 29.6321 264.633 29.8155 264.199 30.1821C263.799 30.5488 263.533 31.0655 263.399 31.7321C263.299 32.3988 263.249 33.1821 263.249 34.0821V43.3321C263.249 43.7988 263.233 44.4655 263.199 45.3321C263.166 46.1655 263.116 46.9655 263.049 47.7321C263.583 47.6655 264.166 47.6321 264.799 47.6321C265.466 47.5988 265.966 47.5821 266.299 47.5821V51.3821H253.199V48.1321C254.133 48.1321 254.799 47.9488 255.199 47.5821C255.599 47.2155 255.849 46.6988 255.949 46.0321C256.083 45.3321 256.149 44.5488 256.149 43.6821V34.4321C256.149 33.9655 256.166 33.2988 256.199 32.4321C256.233 31.5655 256.283 30.7655 256.349 30.0321C255.816 30.0655 255.233 30.0988 254.599 30.1321C253.966 30.1655 253.466 30.1821 253.099 30.1821V26.3821H266.199V29.6321ZM298.959 60.5321C298.993 58.2988 298.843 56.5155 298.509 55.1821C298.209 53.8488 297.743 52.8821 297.109 52.2821C296.509 51.6821 295.776 51.3821 294.909 51.3821H271.509V48.1321C272.443 48.1321 273.109 47.9488 273.509 47.5821C273.909 47.2155 274.159 46.6988 274.259 46.0321C274.393 45.3321 274.459 44.5488 274.459 43.6821V34.4321C274.459 33.9655 274.476 33.2988 274.509 32.4321C274.543 31.5655 274.593 30.7655 274.659 30.0321L271.409 30.1821V26.3821H284.559V29.6321C283.626 29.6321 282.943 29.8155 282.509 30.1821C282.109 30.5488 281.843 31.0655 281.709 31.7321C281.609 32.3988 281.559 33.1821 281.559 34.0821V43.3821C281.559 43.8488 281.543 44.4821 281.509 45.2821C281.476 46.0488 281.426 46.7821 281.359 47.4821H287.159C288.093 47.4821 288.759 47.3321 289.159 47.0321C289.593 46.6988 289.859 46.2488 289.959 45.6821C290.093 45.1155 290.159 44.4655 290.159 43.7321V34.4321C290.159 33.9655 290.176 33.2988 290.209 32.4321C290.243 31.5655 290.293 30.7655 290.359 30.0321L287.109 30.1821V26.3821H300.259V29.6321C299.326 29.6321 298.643 29.8155 298.209 30.1821C297.809 30.5488 297.543 31.0655 297.409 31.7321C297.309 32.3988 297.259 33.1821 297.259 34.0821V43.3321C297.259 43.7988 297.243 44.4655 297.209 45.3321C297.209 46.1655 297.176 46.9655 297.109 47.7321L302.209 47.4821V60.5321H298.959ZM318.939 52.1821C316.506 52.1821 314.356 51.6488 312.489 50.5821C310.622 49.4821 309.172 47.9488 308.139 45.9821C307.106 43.9821 306.589 41.6321 306.589 38.9321C306.589 36.5988 307.106 34.4155 308.139 32.3821C309.172 30.3488 310.622 28.7155 312.489 27.4821C314.389 26.2155 316.589 25.5821 319.089 25.5821C320.489 25.5821 321.856 25.7821 323.189 26.1821C324.522 26.5488 325.722 27.1988 326.789 28.1321C327.889 29.0655 328.756 30.3321 329.389 31.9321C330.056 33.5321 330.372 35.5321 330.339 37.9321L313.939 38.2321C313.939 40.0321 314.156 41.6488 314.589 43.0821C315.056 44.5155 315.806 45.6488 316.839 46.4821C317.872 47.3155 319.256 47.7321 320.989 47.7321C321.656 47.7321 322.406 47.6155 323.239 47.3821C324.106 47.1488 324.972 46.7655 325.839 46.2321C326.739 45.6655 327.572 44.9155 328.339 43.9821L330.589 46.0821C329.389 47.7821 328.106 49.0821 326.739 49.9821C325.372 50.8488 324.006 51.4321 322.639 51.7321C321.306 52.0321 320.072 52.1821 318.939 52.1821ZM314.239 34.7321H323.439C323.406 33.3321 323.206 32.2321 322.839 31.4321C322.506 30.5988 322.039 29.9988 321.439 29.6321C320.839 29.2655 320.139 29.0821 319.339 29.0821C317.872 29.0821 316.722 29.6155 315.889 30.6821C315.056 31.7155 314.506 33.0655 314.239 34.7321Z" fill="#2F70D9"/>
</svg>
